<?xml version="1.0" encoding="utf-8"?>
<!-- Generator: Adobe Illustrator 16.0.0, SVG Export Plug-In . SVG Version: 6.00 Build 0)  -->
<!DOCTYPE svg PUBLIC "-//W3C//DTD SVG 1.1//EN" "http://www.w3.org/Graphics/SVG/1.1/DTD/svg11.dtd">
<svg version="1.1" id="Layer_1" xmlns="http://www.w3.org/2000/svg" xmlns:xlink="http://www.w3.org/1999/xlink" x="0px" y="0px"
	 width="996.783px" height="434.646px" viewBox="0 0 996.783 434.646" enable-background="new 0 0 996.783 434.646"
	 xml:space="preserve">
<g>
	<g>
		<path fill="#FDFDFD" d="M1.38,132.463c0-43.695,0-87.389,0-131.083c329.548,0,659.097,0.015,988.646-0.129
			c5.172-0.001,6.348,1.163,6.341,6.338c-0.163,140.972-0.161,281.944,0.001,422.916c0.006,4.724-0.926,5.652-5.651,5.651
			c-327.938-0.145-655.876-0.145-983.816-0.002c-4.722,0.003-5.662-0.92-5.653-5.648C1.424,333.92,1.38,237.33,1.38,140.742
			c5.086,5.813,10.926,6.36,17.892,3.368c3.809-1.637,7.289-3.636,10.615-5.961c4.074-2.847,8.666-4.012,13.453-4.638
			c4.468-0.584,5.839,2.004,5.332,5.839c-1.443,10.92-12.56,19.778-23.306,18.359c-2.054-0.271-3.251-0.035-3.585,1.752
			c-0.491,2.618,7.713,8.136,10.096,6.725c12.896-7.635,22.049-18.629,27.015-32.653c2.512-7.093-5.158-15.839-11.664-13.626
			c-4.813,1.637-9.906,2.723-14.368,5.852c-4.416,3.097-9.633,5.266-14.773,7.053c-5.23,1.819-8.766-1.284-7.656-5.972
			c1.618-6.829,10.451-14.345,17.546-14.808c1.875-0.123,4.258-0.02,4.74-1.917c0.646-2.541-2.431-2.823-3.833-4.112
			c-1.374-1.264-3.139-3.769-4.959-1.034c-2.906,4.367-7.537,6.8-11.063,10.5C7.959,120.611,4.509,126.331,1.38,132.463z
			 M342.208,426.341c4.147,0.918,8.713,3.49,11.038-2.793c5.677-1.001,6.559-3.75,4.56-9.158c-1.622-4.387-5.59-4.247-8.311-6.372
			c-1.893-1.478-4.14-3.425-2.795-5.578c1.316-2.105,4.117-3.487,7.095-2.218c1.705,0.725,3.204,1.705,4.334,3.268
			c0.972,1.343,1.273,4.137,3.65,3.159c1.983-0.814,0.894-3.253,1.01-4.967c0.089-1.312-0.256-2.655-0.376-3.711
			c-4.112,0.322-8.012,1.198-11.771,0.786c-5.304-0.581-8.968,0.352-10.223,6.148c-1.217,5.617,2.707,8.012,6.629,9.367
			c4.895,1.69,7.179,4.261,6.322,9.397c-3.736,0.91-7.472,1.819-11.208,2.729c0.447-4.886-4.15-6.074-6.384-9.942
			C334.489,426.409,334.489,426.409,342.208,426.341z M461.004,411.051c-4.137-6.265-6.496-6.776-13.447-2.719
			c4.882-0.154,8.071,6.843,13.571,2.583c1.519,2.821-1.788,3.637-2.456,5.637c-1.388,4.158-0.502,7.469,3.005,9.399
			c3.314,1.826,7.355,3.446,9.912-1.646c-1.662-1.633-5.173,0.547-5.859-3.144c3.414-1.558,6.834-3.215,10.335-4.686
			c2.971-1.249,5.593-2.886,4.205-6.515c-1.259-3.293-3.953-3.742-7.591-3.555C468.025,406.645,465.367,410.788,461.004,411.051z
			 M677.463,422.14c-3.93-0.193-3.873-0.171-2.785-3.111c1.067-2.887,3.896-5.239,2.428-8.904c-2.377-5.938-6.89-4.467-12.049-2.748
			c2.061-4.226,3.703-7.596,5.383-11.044c-7.601-0.428-7.934-0.128-9.945,6.506c-2.21,7.291-7.209,13.845-6.583,22.857
			c3.969-2.226,6.403-4.313,7.078-7.95c0.124-0.672,0.194-1.389,0.487-1.991c1.609-3.324,4.161-6.243,7.887-4.306
			c3.796,1.977-0.334,4.611-0.736,6.946c-0.523,3.029-3.887,6.64,0.595,8.619c4.146,1.831,7.382-0.161,8.107-5.038
			c4.978,6.257,12.502,6.968,18.554,1.859c0.758-0.639,1.44-0.906,0.911-2.051c-0.62-1.341-1.334-1.557-2.625-0.771
			c-1.516,0.923-3.137,2.178-4.769,2.271c-1.705,0.098-6.407,1.169-2.65-3.502c1.13-1.405-0.576-2.378-0.841-3.534
			c-0.841-3.679,1.86-5.58,4.749-6.229c3.897-0.874,3.38,1.482,2.245,4.021c-0.473,1.056,0.465,1.495,1.492,1.579
			c1.387,0.113,3.052,0.351,3.804-0.871c0.997-1.62,2.469-3.201,1.133-5.627c-1.235-2.246-2.555-3.787-5.254-3.396
			C685.936,406.903,676.118,413.778,677.463,422.14z M182.008,423.726c2.378,0.07,2.792,2.847,4.654,3.464
			c2.936,0.975,6.957-0.533,5.778-2.913c-2.443-4.933,0.952-7.61,2.387-10.932c1.758-4.069,0.206-7.46-4.174-7.598
			c-9.753-0.306-16.597,4.71-19.647,14.236c-0.283,0.886,1.599,3.424-1.867,2.551c-2.897-0.729-1.635-3.701-1.538-3.975
			c1.321-3.728,3.078-7.301,4.798-11.067c-7.578-0.636-9.425,0.62-11.216,8.042c-1.236,5.123-4.459,6.556-9.8,6.304
			c1.876-3.965,3.633-7.297,5.046-10.768c1.401-3.44,0.71-6.56-3.673-5.101c-5.196,1.73-8.463,1.361-10.003-4.425
			c-0.445-1.673-2.285-2.254-3.8-2.669c-1.773-0.486-3.704-0.016-2.398,2.276c3.711,6.514,0.073,11.825-2.408,17.344
			c-0.8,1.777-1.503,4.003-4.265,1.513c-1.317-1.187-4.027-1.075-5.035,0.284c-1.529,2.063,2.752,1.94,2.201,4.202
			c-4.573,0.67-6.645-1.148-6.632-5.988c0.01-3.574,1.009-6.677,2.396-9.868c0.679-1.562,0.925-3.724-0.894-5.049
			c-1.653-1.204-3.495,0.091-4.233,0.971c-3.901,4.647-6.199,10.138-4.205,16.139c1.703,5.124,5.926,7.228,11.434,6.798
			c2.121-0.166,4.529-0.915,6.114,1.721c2.256,3.752,6.286,4.129,8.476,1.26c1.765-2.312-3.159-3.059-4.142-5.269
			c2.685-4.328,7.874-6.756,9.218-12.079c0.391-1.545,0.184-3.527,2.757-2.469c2.577,1.061,0.582,2.646,0.307,3.934
			c-0.28,1.312-1,2.524-1.423,3.814c-0.883,2.695-1.433,5.718,0.838,7.7c2.139,1.866,5.056,1.853,7.777,0.469
			c1.151-0.585,3.21-1.642,3.517-1.295c5.792,6.527,13.281-3.81,19.264,1.922c0.507,0.484,4.578-0.325,4.525-3.6L182.008,423.726z
			 M222.025,24.918c5.855,0.16,8.26,5.499,12.193,8.428c9.127,6.798,17.876,14.128,26.497,21.571
			c4.124,3.562,8.11,0.842,11.632-0.058c2.876-0.734,0.308-4.347,0.043-6.678c-1.181-10.417-2.31-20.841-3.596-31.246
			c-0.452-3.657,0.429-6.881,3.049-10.156c-6.598-0.083-12.52-1.617-17.811,1.62c10.244,10.031,6.064,23.846,11.073,36.688
			c-12.172-7.555-20.351-17.209-29.808-25.291c-9.734-8.318-21.12-10.048-32.621-3.161c3.525,2.161,9.7-0.238,10.506,5.808
			c1.384,10.385,2.516,20.803,3.699,31.213c0.342,3.018-0.651,5.607-3.684,6.596c-3.223,1.051-6.57,1.842-9.924,2.342
			c-3.152,0.47-5.412-0.155-6.241-4.262c-1.794-8.872-4.118-17.656-6.655-26.35c-1.47-5.041-1.687-9.282,5.293-12.819
			c-10.224-0.093-17.74,3.663-25.729,4.805c-1.045,0.148-1.568,0.916-1.576,1.908c-0.012,1.505,1.077,1.757,2.294,1.873
			c2.116,0.202,4.179-0.5,5.051,2.988c2.47,9.885,5.778,19.558,8.443,29.398c1.196,4.417,1.194,9.299-4.959,9.609
			c-4.241,0.213-8.569,0.765-12.988-0.818c-5.997-2.148-11.027-6.48-17.544-7.383c-1.441-0.2-1.745-1.159-0.803-2.862
			c1.217-2.202,3.19-3.232,5.029-4.39c3.901-2.455,5.757-6.251,5.161-10.303c-0.71-4.827-4.378-7.937-9.333-8.711
			c-2.458-0.384-5.065-0.212-7.557,0.096c-12.662,1.564-23.327,8.71-35.12,12.722c-1.885,0.641-1.747,1.777-0.613,3.066
			c8.253,9.397,10.425,21.775,15.927,32.522c1.784,3.483,1.352,6.433-2.19,8.658c-1.213,0.761-3.266,0.915-2.731,4.595
			c8.704-3.374,17.618-5.268,25.479-10.048c1.697-1.032,1.724-3.766-0.805-3.867c-7.829-0.311-8.166-6.519-10.087-11.702
			c-1.829-4.933,1.008-5.386,4.595-4.979c2.007,0.227,3.973,0.72,5.563,2.357c3.884,3.997,9.374,5.526,13.792,8.573
			c4.407,3.04,7.926,1.993,11.538-0.279c8.89-5.591,19.4-5.692,29.021-8.812c11.819-3.834,24.246-5.339,36.5-7.403
			c1.604-0.271,4.265,0.329,3.743-2.633c-0.442-2.502-2.349-1.208-3.83-0.973c-2.813,0.449-5.363-0.72-5.598-3.439
			c-0.843-9.728-4.432-19.046-4.16-28.914L222.025,24.918z M302.708,44.229c-0.499-1.985-0.885-4.007-1.516-5.95
			c-1.976-6.089-2.699-12.556,0.064-18.179c6.853-13.944,27.771-14.847,37.084-1.924c1.413,1.961,2.791,3.295,4.859,1.341
			c1.91-1.804-0.754-11.443-3.341-12.034c-4.32-0.988-8.862-1.166-13.062-2.478c-7.66-2.393-14.689,0.796-22.016,1.428
			c-4.713,0.407-8.398,1.723-11.663,4.805c-10.058,9.49-10.257,24.298-0.511,35.601c-7.92,1.696-6.391,7.766-4.979,12.622
			c1.458,5.007-2.919,8.289-2.335,12.731c-5.86-1.333-8.024,4.602-12.423,6.461c-13.745,5.812-27.016,12.748-40.431,19.329
			c-4.068,1.997-8.065,3.805-12.646,4.678c-3.804,0.725-4.499,0.351-3.332-3.286c1.919-5.983-2.738-9.608-6.323-11.904
			c-4.027-2.581-3.417,3.124-4.992,5.077c-0.401,0.497-1.18,0.675-1.756,1.047c-4.73,3.056-5.07,6.596-1.144,10.591
			c-0.348,0.315-0.696,0.631-1.044,0.946c-5.174,2.115-9.151,6.425-9.356,11.342c-0.245,5.869-2.953,4.468-5.842,3.595
			c-5.772-1.746-11.66-2.195-17.56-1.695c-17.251,1.462-23.343,4.614-30.826,20.989c-2.042,4.467-1.825,9.903-0.876,14.475
			c2.334,11.246,11.018,17.064,20.939,21.288c-0.768,1.186-1.949,0.725-3.044,0.881c-16.664,2.372-31.237-4.223-46.002-10.364
			c-10.148-4.22-20.544-7.846-31.204-11.88c0.023,2.905,1.307,3.731,2.629,4.667c14.139,10.006,28.058,20.343,42.467,29.941
			c4.899,3.264,9.039,7.927,16.208,7.912c112.185-0.217,224.372-0.149,336.558-0.194c2.213,0,4.417,0.38,6.665-0.846
			c14.943-8.154,30.145-15.845,44.895-24.33c6.134-3.529,13.307-5.687,18.571-11.477c-2.973-1.6-5.256-0.939-7.675-0.262
			c-17.68,4.954-35.381,9.835-53.088,14.694c-10.735,2.946-21.554,2.841-32.407,0.686c1.336-0.812,3.194-1.303,3.927-2.489
			c6.024-9.753,15.552-17.057,17.345-29.824c1.757-12.509,0.278-23.515-8.478-32.472c-8.755-8.957-10.277-19.738-10.365-31.269
			c10.958,4.392,21.948,8.706,32.866,13.199c8.606,3.542,9.781,2.675,8.885-7.069c-7.301,2.022-8.96,1.812-19.995-2.528
			c-10.845-4.265-10.577-4.141-5.813-14.514c2.436-5.302,5.324-7.48,10.498-4.039c3.326,2.212,8.667,0.993,10.306,5.783
			c0.703,2.058-0.142,5.316,2.835,5.44c2.559,0.106,2.448-3.328,3.713-5.057c1.062-1.454,1.948-3.153,2.429-4.879
			c0.382-1.365,3.028-2.74,0.15-4.475c-1.867-1.128-3.494-1.62-4.628,0.443c-1.582,2.874-3.565,1.746-5.828,1.268
			c-3.904-0.825-6.984-3.287-10.532-4.793c-1.846-0.784-4.122-1.649-2.65-4.425c1.93-3.637,0.354-9.195,5.269-11.051
			c3.84-1.45,20.417,7.959,21.834,11.972c0.65,1.848,0.409,4.835,2.895,4.572c1.412-0.149,2.21-2.997,3.081-4.847
			c2.307-4.909-0.869-6.652-4.281-8.075c-10.228-4.265-20.491-8.456-30.849-12.39c-3.334-1.266-8.881-5.785-7.414,3.809
			c0.397,2.601-1.459,5.633-2.552,8.357c-2.709,6.755-5.574,13.446-8.376,20.162c-7.17-0.36-14.34-1.172-21.514-0.036
			c0.247-0.841,0.529-1.674,0.734-2.524c2.786-11.536,3.079-23.812,10.492-33.966c2.031-2.781,0.654-4.519-2.558-5.328
			c-5.714-1.439-11.362-3.145-17.062-4.649c-1.137-0.3-2.709-1.799-3.479,0.171c-0.645,1.648,0.749,2.343,2.25,2.618
			c6.274,1.147,5.461,5.416,4.322,9.837c-0.678,2.631-0.956,5.432-2.041,7.877c-3.306,7.461-2.858,16.711-8.14,22.779
			c-4.393,5.047-1.636,5.262,1.889,6.643c-6.824,3.48-8.654,3.894-9.986,2.26c-4.135-5.079-11.593-6.053-16.635-1.966
			c-1.608,1.303-3.352,1.97-5.134,2.843c-6.942,3.398-14.47,5.115-21.487,8.2c-2.327,1.022-4.145,2.625-1.831,5.021
			c0.821,0.851,4.352-0.686,2.058,2.648c-1.036,1.505-2.09,1.719-3.922,0.463c-4.499-3.084-8.733-1.796-11.798,2.302
			c-3.092,4.133-5.481,0.512-7.134-0.84c-2.086-1.706,2.101-13.024,5.021-13.958c5.905-1.885,3.949-7.286,4.696-11.075
			c0.589-2.989-3.593-1.852-5.497-2.696c-2.594-1.151-6.197-3.607-8.297,0.637c-1.652,3.343-5.499,7.021-0.006,10.683
			c1.829,1.219,0.857,3.263,0.305,5.007c-0.882,2.779-1.685,5.583-2.521,8.376c-1.451-0.426-2.703-0.979-4.004-1.145
			c-7.583-0.969-9.945-3.688-5.659-11.323c2.661-4.74-0.603-10.227-1.932-15.39c-1.284-4.983-5.012,0.403-6.407-2.222
			c-0.278-0.521-0.554-1.046-0.831-1.567c4.347,0.839,8.507-0.479,12.766-0.93c13.314-1.411,13.324-1.241,13.225-14.769
			c-0.033-4.458-1.372-9.83,6.256-9.064c1.297,0.129,2.146-0.688,2.142-2.049c-0.002-1.037-0.664-1.753-1.686-1.756
			c-9.66-0.035-19.32-0.021-30.404-0.021c3.797,4.321,10.063,2.665,9.996,9.528c-0.135,13.898,0.379,13.903-13.74,14.318
			c0.516-2.291,1.955-3.708-2.25-5.354C311.686,42.977,307.062,47.856,302.708,44.229z M644.349,387.011c0,0.009,0,0.018,0,0.026
			c100.009,0,200.017-0.054,300.024,0.145c5.626,0.011,6.723-1.691,6.598-6.836c-0.336-13.789-0.482-27.605,0.047-41.384
			c0.238-6.207-1.568-7.474-7.573-7.46c-95.181,0.213-190.363,0.156-285.546,0.156c-103.926,0.002-207.853,0.069-311.779-0.177
			c-6.394-0.015-7.56,1.883-7.381,7.681c0.417,13.555,0.552,27.151-0.047,40.691c-0.286,6.441,1.97,7.289,7.655,7.279
			C445.68,386.963,545.015,387.011,644.349,387.011z M506.741,258.389c0,20.456,0.035,40.914-0.035,61.37
			c-0.011,3.381-0.188,5.658,4.613,6.22c13.147,1.536,26.314,2.862,39.501,2.058c15.654-0.956,31.396-3.757,44.189-13.074
			c8.158-5.941,15-14.434,14.898-26.184c-0.122-14.529-4.555-26.564-17.682-34.324c-2.997-1.773-3.936-3.488,0.089-5.886
			c4.284-2.552,7.761-6.174,9.985-10.977c9.415-20.335-2.646-40.727-22.586-46.456c-22.368-6.428-45.095-3.766-67.735-0.812
			c-4.478,0.583-5.356,2.597-5.319,6.694C506.85,217.474,506.747,237.932,506.741,258.389z M760.282,257.896
			c0,20.217,0.358,40.442-0.213,60.641c-0.178,6.264,2.53,8.118,7.455,8.198c7.307,0.12,14.547,0.861,21.817,1.314
			c15.698,0.977,31.322-0.702,46.255-5.456c15.438-4.913,27.982-13.925,36.596-28.448c10.682-18.014,11.444-37.087,8.178-56.787
			c-3.094-18.668-13.491-32.499-30.305-40.933c-10.148-5.091-21.125-7.065-32.667-8.229c-17.715-1.787-34.893,0.619-52.27,2.296
			c-4.088,0.395-4.996,2.111-4.952,6.069C760.408,217.003,760.285,237.45,760.282,257.896z M683.838,328.191
			c6.646,0.487,15.155-0.563,23.656-3.852c18.867-7.299,31.591-20.22,37.623-39.394c3.94-12.52,5.82-25.242,4.289-38.658
			c-1.706-14.951-6.655-28.424-16.617-39.214c-29.498-31.95-80.027-26.669-103.148,8.205
			c-10.094,15.226-13.593,32.367-12.517,50.532c0.94,15.817,7.557,29.736,17.015,41.577
			C645.906,322.118,662.38,328.97,683.838,328.191z M133.716,387.035c0-0.01,0-0.021,0-0.031c41.839,0,83.68-0.07,125.519,0.104
			c4.417,0.019,5.864-0.951,5.77-5.58c-0.305-14.94-0.237-29.894-0.05-44.839c0.048-3.8-0.869-5.115-4.931-5.109
			c-79.542,0.115-159.083,0.104-238.625,0.008c-3.952-0.004-5.461,1.309-6.365,5.196c-3.37,14.486-7.161,28.876-10.87,43.282
			c-1.233,4.789-1.401,7.245,5.403,7.177C50.946,386.827,92.332,387.035,133.716,387.035z M18.684,326.887
			c11.675,0,22.239-0.156,32.793,0.102c2.956,0.071,4.254-1.361,4.907-3.529c2.658-8.844,5.291-17.703,7.535-26.657
			c0.77-3.074,2.039-4.182,5.104-4.137c8.499,0.125,17.002,0.109,25.502-0.002c3.073-0.04,4.112,1.223,4.962,4.211
			c2.474,8.69,5.592,17.194,8.377,25.798c0.925,2.859,2.18,4.445,5.72,4.328c9.41-0.312,18.851-0.404,28.253,0.013
			c5.224,0.231,4.878-1.906,3.72-5.55c-2.724-8.569-5.157-17.231-7.884-25.8c-10.712-33.656-21.576-67.264-31.486-101.171
			c-0.731-2.505-1.19-6.108-6.035-5.932c-11.932,0.436-23.891,0.188-35.838,0.105c-3.455-0.023-5.737,1.432-6.311,4.759
			c-3.036,17.592-9.552,34.201-14.474,51.251C35.675,271.888,27.175,298.914,18.684,326.887z M340.078,272.282
			c-2.554,8.527,1.078,18.602,5.865,26.219c7.912,12.591,20.11,21.489,35.132,25.898c15.102,4.431,30.32,5.595,45.185,0.912
			c11.369-3.581,23.634-7.819,30.85-17.76c10.755-14.816,18.481-31.361,13.374-50.657c-4.088-15.446-10.217-29.65-25.358-37.853
			c-15.055-8.156-30.75-11.229-48.004-9.44C364.319,213.003,338.091,236.623,340.078,272.282z M326.285,270.446
			c0.015,0,0.03,0,0.046,0c0-17.706-0.206-35.416,0.125-53.115c0.099-5.285-1.547-6.58-6.617-6.401
			c-11.024,0.391-22.094,0.55-33.1-0.039c-6.521-0.349-8.44,1.229-8.36,8.08c0.406,34.948,0.241,69.903,0.144,104.854
			c-0.007,2.529,1.657,6.684-3.421,6.573c-4.054-0.088-4.252,2.177-4.235,5.275c0.084,15.407,0.141,30.814-0.043,46.219
			c-0.046,3.81,0.977,5.324,4.994,5.283c16.784-0.169,33.571-0.15,50.356-0.04c3.695,0.024,5.283-0.95,5.227-5.035
			c-0.217-15.634-0.07-31.272-0.128-46.909c-0.006-1.484,0.743-3.879-1.201-4.22c-4.894-0.857-3.745-4.433-3.755-7.406
			C326.254,305.859,326.285,288.152,326.285,270.446z M226.05,249.871c0,11.036,0.101,22.072-0.035,33.105
			c-0.09,7.313-3.658,14.524-9.396,17.083c-18.038,8.045-32.662-0.734-33.103-20.975c-0.445-20.451-0.247-40.921-0.008-61.378
			c0.049-4.258-0.974-5.555-5.291-5.362c-8.03,0.36-16.099,0.354-24.131,0.007c-4.639-0.201-6.298,0.927-6.228,5.961
			c0.298,21.146-0.083,42.302,0.238,63.447c0.12,7.913,1.771,15.854,6.157,22.619c14.711,22.693,40.496,28.362,66.517,21.707
			c37.386-9.562,39.515-27.256,41.169-49.942c1.434-19.667,0.203-39.521,0.4-59.291c0.038-3.772-1.242-4.557-4.693-4.475
			c-8.961,0.214-17.938,0.29-26.893-0.028c-4.131-0.147-4.879,1.38-4.798,5.108C226.192,228.259,226.04,239.067,226.05,249.871z
			 M872.811,188.686c11.573,21.628,22.461,42.094,33.464,62.497c5.962,11.058,11.399,21.883,9.948,35.371
			c-1.248,11.593-0.074,23.429-0.376,35.146c-0.112,4.309,1.175,5.473,5.405,5.286c8.032-0.352,16.106-0.405,24.13,0.021
			c4.78,0.253,5.687-1.516,5.568-5.842c-0.291-10.568,0.845-21.254-0.318-31.699c-1.707-15.332,4.11-27.726,11.633-40.276
			c10.837-18.081,20.726-36.727,31.103-55.084c2.195-3.883,2.075-5.641-3.141-5.495c-9.878,0.276-19.771,0.179-29.654,0.011
			c-2.9-0.048-4.635,0.677-5.772,3.524c-3.857,9.657-7.749,19.31-11.997,28.799c-2.843,6.353-3.865,13.508-8.183,19.511
			c-2.47-3.297-3.661-6.736-4.697-10.188c-3.979-13.25-10.524-25.458-15.413-38.333c-0.951-2.504-2.487-3.345-5.185-3.311
			C897.612,188.768,885.898,188.686,872.811,188.686z M546.572,124.525c7.732,8.319,15.39,15.55,21.799,23.756
			c5.769,7.383,13.243,11.697,21.406,15.183c8.38,3.581,15.107-1.035,21.334-5.725c6.015-4.528,7.442-10.797,6.912-18.412
			c-0.771-11.054-7.664-18.208-14.521-25.188c-5.406-5.503-8.883-13.238-17.467-16.463c0.608,4.112-1.304,6.337-3.666,9.054
			c-6.635,7.623-15.794,12.218-22.401,19.777c-1.859,2.129-4.306,1.917-6.84,0.476C551.48,126.047,550.683,123.482,546.572,124.525z
			 M39.657,88.662c3.298,1.92,4.67,0.302,6.313-0.163c3.092-0.875,5.746-0.364,7.689,2.727c4.098,6.518,8.518,12.833,12.617,19.349
			c3.708,5.894,9.766,11.854-0.059,18.544c8.948-5.265,17.771-9.406,25.669-17.237c-2.365,0-3.248-0.085-4.11,0.012
			c-8.229,0.935-7.988-6.585-10.757-10.947c-2.627-4.14,1.843-4.633,3.801-6.386c4.741-4.244,10.586-7.201,14.524-12.37
			c3.314-4.354,5.262-8.255,1.441-14.057c-3.946-5.992-8.504-5.905-14.125-4.56C66.061,67.545,54.576,80.034,39.657,88.662z
			 M385.881,60.722c0.158-0.659,0.315-1.319,0.473-1.978c-0.726-0.465-1.408-1.028-2.184-1.381
			c-6.229-2.836-8.483-13.528-3.936-19.032c0.53-0.641,1.706-1.551,2.134-1.354c5.811,2.656,13.389-2.195,18.288,4.41
			c1.735,2.341,4.533,1.391,4.625-0.724c0.15-3.429,2.536-6.639,0.974-10.121c-0.082-0.183-1.574-0.135-1.857,0.232
			c-4.847,6.275-10.498,4.241-16.584,2.211c-3.177-1.058-7.318-1.286-5.933-5.452c1.334-4.01-2.046-12.653,7.153-10.731
			c6.008,1.254,13.632-1.8,17.848,5.562c0.854,1.492,0.235,4.94,3.603,3.664c3.392-1.287,1.607-5.238,3.351-7.674
			c1.18-1.65-0.689-2.606-2.713-3.447c-3.562-1.479-7.212-0.959-10.77-1.542c-11.869-1.94-23.685-4.52-37.48-5.066
			c4.009,3.323,8.352,4.917,7.019,9.607c-2.87,10.101-3.338,20.559-4.885,30.856c-0.469,3.118-2.554,4.693-5.594,5.119
			c-1.613,0.227-3.626-0.77-5.367,2.453C365.087,57.855,375.484,59.288,385.881,60.722z M524.226,55.002
			c0.6,4.694,7.668,6.152,3.821,12.2c-4.882,7.666-10.062,15.137-14.544,23.089c-1.743,3.094-4.722,9.047-10.612,3.805
			c-1.199-1.066-3.196-1.537-4.156,0.361c-1.175,2.323,0.893,3.021,2.481,4.005c12.193,7.543,24.344,15.156,36.509,22.747
			c8.448,5.274,9.185,5.049,12.984-4.095c0.391-0.94,1.399-1.822,0.241-3.024c-1.075-1.117-2.049-0.761-3.024-0.089
			c-5.954,4.104-11.012,2.741-15.631-2.339c-0.891-0.979-2.292-1.508-3.48-2.203c-8.252-4.829-8.734-5.164-3.586-12.486
			c6.219-8.843,9.447-19.874,18.751-26.443c2.112-1.492,0.335-2.893-0.028-3.214C538.085,62.123,531.513,58.015,524.226,55.002z
			 M385.917,413.161c1.255,3.387-0.791,6.162-1.555,9.188c-0.396,1.569-3.64,3.737-0.006,4.786c2.126,0.613,5.439,1.816,6.113-2.9
			c1.235-8.639,5.614-14.019,15.553-12.137c-0.285,0.906-0.555,1.992-0.964,3.022c-1.391,3.507-5.425,7.072-0.645,10.653
			c4.745,3.558,9.036,1.407,12.842-2.128c3.147-2.922,5.717-6.24,7.122-10.388c0.47-1.386,1.635-2.577,3.127-1.912
			c1.782,0.797,0.41,2.538,0.057,3.415c-1.011,2.517-2.692,4.755-3.855,7.224c-1.073,2.277,0.554,4.091,2.193,4.835
			c2.519,1.143,5.579,1.458,7.662-0.969c3.015-3.513-1.186-1.98-2.111-2.685c-1.482-1.126-0.41-1.947,0.25-2.757
			c2.391-2.932,2.952-6.609,4.219-10.008c1.508-4.046,0.516-4.481-3.559-3.564c-3.366,0.759-7.623,5.739-10.726-0.743
			c-0.088-0.185-1.718,0.083-2.381,0.518c-1.366,0.896-1.27,1.969-0.419,3.457c2.397,4.193,0.202,7.746-2.846,10.124
			c-1.569,1.225-3.444,4.988-6.096,2.571c-1.951-1.78,0.563-4.167,1.353-6.203c0.821-2.114,1.901-4.133,2.657-6.267
			c0.587-1.659-0.349-4.366-1.468-3.835c-4.681,2.218-9.614-2.251-13.963,0.888c-2.152,1.553-4.867,0.731-6.564,1.312
			c-5.116,1.743-8.563,0.806-12.264-2.712c-0.897-0.852-3.677-0.348-5.285,0.298c-3.606,1.447-6.716,3.714-9.44,6.615
			c-2.678,2.854-4.948,6.149-3.235,9.725c1.536,3.206,5.077,4.942,9.005,4.808c4.48-0.152,7.822-2.623,9.288-6.98
			c-0.979,0.226-1.989,0.196-2.655,0.661c-2.224,1.55-5.786,4.312-6.73,1.376c-0.789-2.45-3.308-6.177-0.478-9.579
			c1.72-2.068,3.393-4.132,6.132-2.826c4.147,1.979-1.92,3.299-0.571,5.265C381.188,415.541,381.188,415.541,385.917,413.161z
			 M239.606,398.844c-7.655-0.348-8.651,8.085-14.198,10.047c3.579,5.273-0.119,8.741-2.896,12.624
			c-1.034,1.445-0.896,4.123,0.314,5.169c1.97,1.703,5.007,1.341,7.131,0.291c1.543-0.762,4.561,0.076,4.626-3.092
			c0.057-2.744-0.766-2.32-2.623-1.11c-2.896,1.889-3.247-0.449-2.604-2.306c0.954-2.759,2.544-5.295,3.831-7.943
			c1.743-3.584,4.146-3.293,7.343-1.786c4.123,1.94,0.264,3.478-0.045,5.08c-0.417,2.166-2.988,4.318-1.684,6.34
			c3.4,5.27,0.218,7.337-5.048,9.314c4.466,2.045,7.199,3.468,11.739,2.639c9.518-1.741,11.068-9.224,13.896-16.021
			c1.446-3.475,5.897-8.876,2.626-10.406c-5.875-2.749-6.671,4.542-9.082,8.23c-1.6,2.446-2.149,7.771-5.938,5.838
			c-3.855-1.969,0.703-5.28,1.396-8.013c0.553-2.186,4.46-3.709,1.816-6.448c-2.251-2.332-5.135-2.325-7.972-0.322
			c-1.434,1.013-3.356,0.46-4.434-0.543c-0.951-0.883-0.499-2.459,0.331-3.748C238.795,401.643,239.05,400.348,239.606,398.844z
			 M301.499,197.034c0,0.02,0,0.041,0,0.061c-7.805,0-15.619,0.208-23.414-0.083c-4.303-0.16-4.965,1.864-4.75,5.417
			c0.194,3.208-0.569,6.422,4.598,6.354c15.838-0.208,31.682-0.211,47.52,0.007c4.418,0.062,4.833-2.093,4.585-5.504
			c-0.222-3.053,0.935-6.549-4.438-6.334C317.579,197.271,309.534,197.034,301.499,197.034z M764.632,421.87
			c2.808-4.055,7.731-3.802,11.254-6.126c2.163-1.428,4.711-2.256,3.438-5.588c-1.191-3.119-3.401-5.066-6.848-4.364
			c-4.516,0.919-9.407,2.33-11.532,6.557c-3.453,6.869-9.337,9.433-16.001,11.343c-1.453,0.417-2.94,1.823-4.212,0.023
			c-0.928-1.309-1.011-2.728-0.18-4.438c1.774-3.653,3.247-7.467,4.637-11.29c3.906-10.745,3.856-10.771-6.667-9.089
			c0.196,10.622-6.157,18.712-9.907,28.548c7.295,0,15.871,2.542,20.91-0.596c7.596-4.728,12.897,2.469,19.039,0.373
			c2.53-0.862,4.824-2.457,7.167-3.817c1.177-0.685,1.299-1.947,0.634-2.955c-0.996-1.505-2.028-0.344-2.752,0.388
			C770.933,423.546,768.174,424.844,764.632,421.87z M621.321,398.928c-5.157,0-9.465,0-14.683,0
			c5.817,5.076,1.434,8.6-1.111,11.116c-2.831,2.798-9.251,4.94-10.828,1.642c-1.963-4.102,1.177-9.546,7.819-13.27
			c-5.362,0-8.539-0.076-11.707,0.04c-1.143,0.04-3.016-0.579-2.925,1.64c0.402,10.028-5.446,18.107-8.321,27.252
			c3.148,0,6.349,0,9.864,0c-1.651-3.458-0.054-6.67,0.58-9.802c0.718-3.555,9.779-6.033,13.804-3.682
			c4.791,2.799-1.302,4.458-1.273,7.017c0.021,1.997-2.053,3.854-1.901,6.105c5.372,1.609,7.879,0.107,9.819-5.432
			C613.089,414.041,614.653,405.775,621.321,398.928z M291.356,412.193c-6.057-1.277-10.585,1.002-11.269,5.447
			c-0.688,4.465,3.404,9.419,8.629,9.696c6.635,0.353,13.221-1.787,20.002-0.142c1.865,0.453,4.91-0.292,6.411-2.897
			c1.052-1.824-0.541-3.315-1.182-2.808c-7.896,6.259-8.26-2.865-11.174-5.716c-1.968-1.928-3.299-5.303,2.129-6.381
			c4.369-0.868,8.899-4.236,7.027-8.968c-1.848-4.669-7.049-3.709-11.425-2.094c-2.408,0.888-4.183,2.036-5.93,4.134
			c-4.91,5.898-0.437,10.228,1.653,15.099c0.708,1.651,3.209,3.688,0.548,5.282c-2.095,1.256-4.86,1.357-7.065-0.4
			c-1.92-1.53-3.255-3.319-1.358-5.845C289.396,415.211,290.316,413.729,291.356,412.193z M632.018,428.007
			c-2.063,2.261-6.563-1.173-6.34,2.613c0.148,2.518,3.994,4.039,7.145,4.125c1.102,0.031,2.237-0.331,3.321-0.646
			c8.521-2.463,17.096-14.669,16.601-23.351c-0.101-1.767-1.178-2.213-2.349-2.934c-5.999-3.69-11.627-2.373-17.307,4.125
			C627.496,418.341,627.225,422.127,632.018,428.007z M505.743,407.805c-7.198-0.607-16.021,9.777-13.87,15.824
			c1.049,2.948,3.673,4.603,6.509,3.63c3.349-1.149,6.056-3.011,9.615-0.049c1.747,1.453,5.139-0.968,4.519-2.348
			c-2.642-5.873,1.602-9.355,3.605-13.71c1.134-2.461-1.654-3.312-2.861-4.672c-1.882-2.125-3.64-0.069-5.465,0.504
			c-1.271,0.397-1.128,0.699-0.544,1.741c3.325,5.922-2.183,9.143-4.354,13.33c-0.548,1.056-2.258,1.968-3.615,1.182
			c-1.708-0.988-0.979-2.748-0.736-4.289C499.275,414.318,503.102,411.55,505.743,407.805z M552.08,425.953
			c-3.422-9.269-0.043-15.173,8.365-15.39c-1.346,3.424-2.69,6.771-3.975,10.143c-1.473,3.865,1.518,5.02,4.06,5.471
			c2.461,0.438,3.889-0.669,3.554-4.062c-0.293-2.965,0.757-6.07,2.979-8.836c3.016-3.751,0.729-6.649-3.278-7.385
			c-8.225-1.511-15.256,2.703-18.954,10.474c-1.338,2.811-2.5,5.705-0.721,8.422C545.938,427.579,548.973,426.43,552.08,425.953z
			 M830.052,400.104c1.294,1.931-0.367,3.083-0.854,4.474c-2.159,6.173-4.419,12.312-6.715,18.436
			c-0.706,1.883,0.166,3.361,1.525,4.011c2.093,1,4.484,0.856,6.507-0.476c0.854-0.561,2.23-2.084,1.012-2.67
			c-4.612-2.219-1.019-4.573-0.195-6.561c2.341-5.646,5.098-11.12,7.537-16.728c0.568-1.311,2.492-3.062,0.882-4.176
			c-2.481-1.716-5.24-0.046-7.802,0.75C830.47,397.625,829.202,398.336,830.052,400.104z M201.208,427.459
			c2.627,0.509,4.566-2.183,3.688-3.176c-3.251-3.676,0.132-5.943,1.18-8.535c1.956-4.839,4.42-9.472,6.535-14.249
			c0.573-1.295,2.01-2.555,0.46-4.296c-2.614-2.938-5.069-0.326-7.551,0.068c-1.299,0.206-2.972-0.263-2.713,2.61
			c0.677,7.522-2.816,14.089-5.958,20.64C194.668,425.064,196.227,427.635,201.208,427.459z M816.602,423.472
			c-9.771,2.74-7.465-4.421-8.143-8.061c-0.443-2.382,1.421-5.726,5.322-5.614c4.406,0.124,2.483,2.261,1.615,4.456
			c-0.881,2.225,0.537,2.913,2.517,2.34c3.01-0.869,5.714-2.242,5.197-6.05c-0.542-3.991-3.37-5.279-6.924-4.694
			c-5.099,0.839-9.189,3.584-12.736,7.347c-3.458,3.669-4.627,7.849-1.053,11.485C806.284,428.633,811.049,428.633,816.602,423.472z
			 M702.711,427.415c3.19,0.355,4.109-1.929,5.052-4.389c1.946-5.077,2.701-11.28,10.531-10.854
			c1.983,0.108,3.554-1.469,2.992-3.677c-0.599-2.352-2.275-3.335-4.721-2.16c-2.48,1.193-4.9,3.929-7.593,0.241
			c-0.166-0.228-1.159,0.029-1.714,0.221c-3.263,1.122-3.238,2.706-2.883,6.375c0.349,3.598-2.784,6.505-4.359,9.723
			C698.557,425.879,698.693,427.689,702.711,427.415z M522.062,427.509c0.999-0.976,5.712-0.521,2.918-3.548
			c-2.466-2.67-0.961-3.808-0.337-5.762c1.272-3.987,3.732-7.207,6.237-10.483c1.763-2.306,1.924-5.45-0.726-7.035
			c-2.305-1.378-3.608,1.31-5.388,2.7c-5.8,4.534-4.674,11.766-7.473,17.425C515.818,423.792,516.728,427.319,522.062,427.509z
			 M621.914,427.362c2.153,0.827,3.405-0.961,4.725-2.552c0.637-0.766,0.866-2.121-0.148-2.192
			c-5.388-0.385-1.746-3.186-1.219-4.768c0.852-2.567,2.421-4.898,3.246-7.471c0.509-1.592,0.204-5.09-1.306-4.3
			c-2.705,1.416-8.576-0.146-7.872,4.093c0.715,4.312-0.965,7.301-2.324,10.52C614.879,425.763,616.569,427.47,621.914,427.362z
			 M795.678,419.753c-2.495,1.205-3.627,1.482-4.382,2.174c-1.439,1.315-3.175,2.591-4.808,1.43c-2.164-1.542,0.217-3.2,0.796-4.653
			c1.011-2.533,2.253-5.027,3.765-7.291c1.432-2.144-0.018-3.823-0.988-4.844c-1.747-1.839-3.557,0.853-5.537,0.932
			c-0.852,0.034-3.831,0.786-2.356,3.022c2.201,3.344-0.716,5.558-1.658,7.899c-0.901,2.238-2.127,4.258-0.654,6.266
			c1.719,2.342,4.507,3.171,7.38,2.629C790.774,426.648,793.383,424.585,795.678,419.753z M453.656,424.394
			c-0.752-1.141-1.952-0.905-2.998-0.856c-2.604,0.118-5.111,1.05-6.861-2.359c-1.711-3.331,0.662-5.009,1.862-7.198
			c0.707-1.29,2.909-2.503,1.204-3.895c-1.56-1.274-3.86-0.788-5.645,0.501c-4.087,2.952-5.627,10.481-2.868,13.928
			C441.592,428.565,449.285,428.513,453.656,424.394z M222.943,405.381c-3.911,1.135-6.281,1.711-8.561,2.536
			c-1.003,0.362-1.823,1.23-2.726,1.869c4.11,4.89-1.626,8.568-1.515,12.891c0.046,1.805,0.94,3.991,3.012,4.858
			c1.504,0.63,3.23,0.626,4.592-0.312c1.049-0.723,2.576-2.767,1.121-3.2c-5.312-1.581-1.017-3.539-0.471-5.243
			C219.682,414.765,221.096,410.791,222.943,405.381z M306.27,415.148c4.092-0.337,8.232,3.374,11.47-1.104
			c1.249-1.728-0.863-3.211-2.018-3.542C311.604,409.323,308.369,410.721,306.27,415.148z M798.285,416.493
			c1.516-3.07,5.188-5.525,2.528-9.448c-0.922-1.359-2.597-1.859-4.144-0.609C791.39,410.702,799.345,412.796,798.285,416.493z
			 M432.229,400.325c0.593,3.052,2.692,3.04,4.786,2.967c1.436-0.049,2.941-0.429,2.591-2.225c-0.389-1.997-1.145-4.155-3.853-3.86
			C433.807,397.419,432.523,398.63,432.229,400.325z M226.01,400.105c-0.849-2.048-2.686-2.845-4.705-2.841
			c-2,0.006-3.427,1.383-3.359,3.384c0.095,2.793,2.289,2.814,4.412,2.7C224.392,403.239,225.736,402.391,226.01,400.105z"/>
		<path fill-rule="evenodd" clip-rule="evenodd" fill="#CD2425" d="M1.38,132.463c3.129-6.132,6.579-11.853,11.48-16.996
			c3.526-3.7,8.157-6.133,11.063-10.5c1.82-2.735,3.585-0.23,4.959,1.034c1.402,1.29,4.479,1.571,3.833,4.112
			c-0.482,1.897-2.864,1.795-4.74,1.917c-7.095,0.462-15.929,7.979-17.546,14.808c-1.11,4.688,2.426,7.791,7.656,5.972
			c5.14-1.787,10.357-3.956,14.773-7.053c4.462-3.129,9.555-4.215,14.368-5.852c6.506-2.213,14.176,6.533,11.664,13.626
			c-4.965,14.024-14.118,25.019-27.015,32.653c-2.383,1.411-10.586-4.107-10.096-6.725c0.334-1.787,1.532-2.023,3.585-1.752
			c10.746,1.419,21.862-7.439,23.306-18.359c0.507-3.835-0.864-6.423-5.332-5.839c-4.787,0.626-9.379,1.791-13.453,4.638
			c-3.327,2.326-6.807,4.324-10.615,5.961c-6.966,2.993-12.806,2.446-17.892-3.368C1.38,137.982,1.38,135.223,1.38,132.463z"/>
		<path fill-rule="evenodd" clip-rule="evenodd" fill="#080808" d="M644.349,387.011c-99.334,0-198.668-0.048-298.002,0.122
			c-5.686,0.01-7.941-0.838-7.655-7.279c0.6-13.54,0.464-27.137,0.047-40.691c-0.179-5.798,0.987-7.695,7.381-7.681
			c103.926,0.246,207.853,0.179,311.779,0.177c95.183,0,190.365,0.057,285.546-0.156c6.005-0.014,7.812,1.253,7.573,7.46
			c-0.529,13.778-0.383,27.595-0.047,41.384c0.125,5.145-0.972,6.847-6.598,6.836c-100.008-0.198-200.016-0.145-300.024-0.145
			C644.349,387.028,644.349,387.02,644.349,387.011z M600.381,355.725c4.048,8.05,7.604,15.166,11.205,22.259
			c2.222,4.371,4.541,4.08,6.448-0.154c5.645-12.543,11.172-25.138,16.768-37.768c-7.104-1.943-12.094-0.829-14.521,6.714
			c-1.319,4.103-3.835,7.818-6.164,12.404c-3.127-6.138-5.86-11.328-8.418-16.604c-1.102-2.275-2.466-3.259-5.178-3.315
			c-2.948-0.062-4.541,0.866-5.751,3.467c-2.429,5.228-5.104,10.34-8.159,16.467c-2.459-4.793-4.901-8.388-6.212-12.355
			c-2.466-7.459-7.415-8.819-14.631-6.838c5.623,12.628,11.173,25.214,16.882,37.727c0.546,1.195,0.637,3.05,3.017,3.133
			c2.67,0.095,2.904-1.91,3.66-3.359C592.979,370.497,596.491,363.421,600.381,355.725z M756.362,354.86
			c7.16,8.516,13.39,15.619,19.246,23.02c2.623,3.317,6.003,3.469,9.227,2.718c3.404-0.795,1.575-4.209,1.619-6.354
			c0.21-10.108-0.16-20.233,0.195-30.334c0.153-4.365-1.7-4.92-5.188-4.554c-2.919,0.306-6.597-1.228-6.144,4.367
			c0.468,5.786,0.104,11.639,0.104,17.462c-0.572,0.28-1.146,0.56-1.718,0.84c-0.549-0.981-0.954-2.086-1.67-2.924
			c-4.893-5.722-9.987-11.276-14.737-17.112c-3.102-3.808-7.258-3.102-10.753-2.243c-2.836,0.695-1.246,4.372-1.287,6.656
			c-0.178,10.11,0.174,20.234-0.176,30.336c-0.179,5.14,3.021,3.958,5.808,4.04c2.924,0.085,5.914,0.849,5.584-4.15
			C756.029,369.916,756.362,363.153,756.362,354.86z M499.643,380.792c12.576,0.049,23.349-9.325,23.427-20.382
			c0.089-12.776-8.245-20.388-21.273-21.152c-15.908-0.932-25.28,10.606-24.972,20.853
			C477.153,371.025,487.553,380.746,499.643,380.792z M877.426,351.527c1.497-9.593-0.386-11.926-9.828-12.143
			c-3.447-0.079-6.898-0.088-10.343,0.018c-9.654,0.295-19.556,8.629-20.559,16.765c-1.355,10.987,6.421,21.684,16.009,23.639
			c7.778,1.587,14.645,0.316,21.769-1.762c1.637-0.477,3.052-1.601,3.254-3.209c0.652-5.218,1.877-11.077-0.44-15.488
			c-1.565-2.979-7.212-0.814-11.02-1.06c-1.584-0.103-4.381-0.817-4.018,2.046c0.279,2.207-2.601,5.9,2.175,6.588
			c1.647,0.235,2.551,0.675,2.17,2.506c-0.322,1.546-1.54,1.252-2.629,1.502c-6.768,1.551-14.774-2.62-15.744-8.287
			c-1.303-7.616,4.233-14.032,12.247-14.808C866.598,347.241,871.774,350.308,877.426,351.527z M414.24,339.403
			c-5.283,0-10.574,0.169-15.848-0.062c-3.186-0.141-4.424,0.708-4.45,4.133c-0.027,3.626,1.163,5.008,4.724,4.478
			c1.124-0.167,2.318,0.129,3.438-0.052c4.42-0.714,6.14,0.814,5.883,5.529c-0.387,7.1,0.21,14.255-0.211,21.352
			c-0.28,4.704,0.945,6.097,5.867,6.217c5.506,0.135,5.86-2.315,5.642-6.552c-0.271-5.271-0.061-10.564-0.06-15.848
			c0.002-10.33,0-10.437,10.106-10.616c3.16-0.055,5.031-0.28,5.066-4.317c0.036-4.06-1.801-4.422-4.997-4.309
			C424.352,339.533,419.293,339.402,414.24,339.403z M682.658,359.744c0,5.491,0.268,10.998-0.087,16.466
			c-0.273,4.23,1.637,5.008,5.181,4.601c2.887-0.33,6.456,1.291,6.266-4.296c-0.373-10.969-0.231-21.96-0.037-32.937
			c0.059-3.347-1.07-4.037-4.265-4.308c-5.362-0.456-7.98,0.635-7.164,6.765C683.151,350.53,682.67,355.169,682.658,359.744z"/>
		<path fill-rule="evenodd" clip-rule="evenodd" fill="#080808" d="M435.01,65.328c7.174-1.136,14.344-0.324,21.516,0.036
			c3.946,5.018-2.363,8.597-1.844,13.135c0.088,11.531,1.61,22.312,10.365,31.269c8.755,8.957,10.234,19.963,8.478,32.472
			c-1.792,12.768-11.321,20.071-17.345,29.824c-0.732,1.186-2.59,1.676-3.922,2.483c-14.661,4.135-29.672,2.039-44.54,2.319
			c-3.734,0.07-7.685-0.456-11.005-2.751c-4.862-2.419-9.686-4.92-14.597-7.233c-4.623-2.179-9.716-4.118-14.299-0.933
			c-6.309,4.386-12.243,5.121-18.648,0.728c-0.371-0.253-0.801-0.597-1.206-0.6c-13.961-0.12-27.926-0.95-41.878,0.438
			c-7.665,0.763-15.371,1.893-23.029,1.7c-6.916-0.174-13.581-1.07-20.46,1.319c-5.041,1.75-10.59,2.091-16.129,1.235
			c-10.456-1.614-21.005-3.513-31.569-2.144c-4.527,0.587-9.038,1.45-13.523,1.008c-6.319-0.621-11.471,1.253-15.919,5.564
			c-2.199-1.073-4.252-0.361-6.531,0.048c-7.041,1.267-14.187,2.621-21.245-0.124c-9.922-4.223-18.605-10.042-20.939-21.288
			c-0.949-4.572-1.165-10.008,0.876-14.475c7.483-16.375,13.575-19.526,30.826-20.989c5.9-0.5,11.788-0.051,17.56,1.695
			c2.89,0.873,5.597,2.274,5.842-3.595c0.205-4.917,4.182-9.227,9.357-11.342c0.311,0.234,0.764,0.734,0.91,0.657
			c0.768-0.408,0.545-1.024,0.134-1.604c-3.926-3.995-3.586-7.535,1.144-10.591c0.576-0.372,1.354-0.55,1.756-1.047
			c1.575-1.954,0.964-7.658,4.992-5.077c3.585,2.296,8.242,5.921,6.323,11.904c-1.167,3.637-0.472,4.011,3.332,3.286
			c4.582-0.873,8.578-2.682,12.646-4.678c13.415-6.581,26.686-13.517,40.431-19.329c4.399-1.859,6.563-7.794,12.423-6.461
			c-0.584-4.443,3.792-7.724,2.335-12.731c-1.413-4.856-2.942-10.925,4.978-12.622c1.458-0.074,2.629,0.391,3.318,1.764
			c-1.239,2.242-5.395,2.42-3.563,6.923c4.678,11.498,7.928,23.478,10.425,35.659c0.267,1.3,0.695,3.9,3.647,2.412
			c3.233-1.629,6.907-2.462,9.96-4.339c2.78-1.71,5.856-3.695,4.656-8.157c-2.381-8.843-4.495-17.758-6.719-26.642
			c-0.101-5.518-2.161-8.246-8.249-6.536c-2.422,0.679-4.731-0.194-3.368-3.692c4.347,3.626,8.972-1.253,14.008,0.717
			c4.206,1.645,2.766,3.063,2.249,5.348c-0.647,1.923,0.338,3.355,1.446,4.749c0.277,0.521,0.553,1.046,0.831,1.567
			c1.395,2.625,5.124-2.761,6.407,2.222c1.329,5.163,4.593,10.649,1.932,15.39c-4.286,7.635-1.925,10.354,5.659,11.323
			c1.302,0.166,2.554,0.719,4.004,1.145c0.835-2.793,1.638-5.597,2.521-8.376c0.553-1.744,1.524-3.788-0.305-5.007
			c-5.493-3.663-1.646-7.34,0.006-10.683c2.1-4.245,5.703-1.788,8.297-0.637c1.904,0.845,6.086-0.292,5.497,2.696
			c-0.748,3.789,1.208,9.189-4.696,11.075c-2.92,0.934-7.108,12.253-5.021,13.958c1.653,1.352,4.042,4.973,7.134,0.84
			c3.065-4.098,7.299-5.386,11.798-2.302c1.832,1.256,2.886,1.042,3.922-0.463c2.294-3.333-1.237-1.797-2.058-2.648
			c-2.314-2.396-0.496-3.998,1.831-5.021c7.017-3.084,14.545-4.801,21.487-8.2c1.782-0.873,3.526-1.54,5.134-2.843
			c5.042-4.087,12.5-3.112,16.635,1.966c1.332,1.634,3.162,1.221,9.983-2.257C425.944,67.636,430.477,66.482,435.01,65.328z
			 M264.409,142.979c2.524-3.6,6.579,4.107,9.336-1.675c-3.758-0.435-7.056-1.519-10.255,0.761c-2.184,0.475-4.667-0.785-7.5,1.697
			C259.442,144.726,261.984,145.822,264.409,142.979z M150.285,163.003l-0.225,0.159c4.668,6.224,16.443,9.765,25.327,7.27
			c2.689-0.756,7.544-0.515,7.602-2.976c0.12-5.1,3.91-5.07,6.489-5.818c5.935-1.721,8.995-5.478,8.399-11.971
			c-3.037,1.831-2.401,6.496-6.068,7.784c-2.961-1.598-0.118-3.087,0.317-4.307c1.848-5.173,4.009-10.21-0.259-15.23
			c-0.773-4.275-2.923-6.857-7.675-6.236c-3.769-4.526-9.13-5.651-18.778-3.681c6.715-0.834,12.182,4.468,18.96,3.546
			c1.599,1.109,4.328,1.724,0.891,4.216c-1.73,1.253,1.154,2.391,1.229,3.922c0.023,0.469,0.385-0.55,0.623-0.896
			c1.314-1.927,1.338-1.909,3.823,0.062c-1.328,3.769,1.254,7.506,0.083,11.246c-0.142,0.454-0.909,0.713-1.387,1.062
			c-2.217-2.366-3.825-6.57-8.56-2.352c2.891,1.38,5.073,3.869,8.58,2.357c-1.607,2.936-0.588,4.896,2.292,6.164
			c-2.761,0.976-5.329,6.917-8.266,0.664c-0.564-1.202,0.042-2.986-1.945-3.32c-1.193-0.201-1.99,0.264-2.403,1.682
			c-0.429,1.473-3.246,2.787-0.422,4.294c1.752,0.936,1.445,1.631,0.747,2.985c-0.987,1.915-9.353,5.13-11.518,5.435
			c-6.975,0.982-9.532-7.252-15.904-7.165c-1.898-2.326-0.945-6.255-4.351-7.732c0.666-4.31,0.256-8.481-1.609-12.478
			c-1.515,4.501-2.266,8.92,1.199,12.955c-0.094,0.979-0.187,1.96-0.282,2.941c-1.208-0.253-2.11-2.372-3.463-1.009
			c-0.982,0.988,0.121,2.126,1.04,2.734C146.613,160.533,147.193,163.667,150.285,163.003z M381.453,143.456
			c-1.164,9.792,5.486,1.934,8.073,2.965c2.792,1.111,0.988-4.849,3.792-6.53c-2.049-0.182-3.759-0.935-5.528,0.167
			c-1.553,0.97-1.957,3.96-4.757,2.77c-0.511-4.339,2.445-6.294,6.02-7.665c-2.113-2.544-3.823-4.601-5.901-7.103
			C379.927,133.303,380.713,138.383,381.453,143.456z M268.141,96.13c4.69-0.386,8.932,3.048,13.995,1.006
			c1.372-0.552,6.647,0.844,7.558,4.933c0.293,1.315-3.337,3.362,0.362,3.94c2.311,0.359,3.304-1.942,3.568-4.141
			c0.637-5.284-0.593-10.306-2.097-15.303c-0.67-2.228-2.039-3.253-3.935-1.714C281.725,89.613,274.161,91.284,268.141,96.13z
			 M348.995,157.763c5.682,8.82,11.248,7.083,18.581,3.797c4.863-2.18,11.034-8.206,17.483-1.583
			c0.634,0.65,2.905,0.419,3.977-0.185c6.317-3.559,13.348-2.355,20.09-3.273C389.182,154.324,369.392,155.184,348.995,157.763z
			 M412.728,79.184c-1.54-0.577-2.712-2.378-3.711-0.27c-0.281,0.596,0.215,1.72,0.627,2.446c0.786,1.389,1.744,1.193,3.344,0.786
			c9.311-2.365,18.675-4.557,28.103-6.391c2.556-0.496,4.25-1.551,5.399-3.556c0.58-1.012,1.609-2.381,0.174-3.64
			c-1.553-1.362-2.322,0.159-3.393,0.875C433.9,75.696,422.418,75.162,412.728,79.184z M448.511,146.592
			c6.305-2.303,4.071-11.815,11.82-12.028c0.079-0.002,0.275-0.859,0.18-1.262c-1.558-6.658-3.786-13.037-8.303-20.139
			C449.557,125.1,457.349,136.622,448.511,146.592z M347.006,153.178c-18.021,0.317-35.625,4.032-53.535,4.905
			C311.571,158.83,329.322,156.034,347.006,153.178z M240.944,159.546c-0.021,0.652-0.041,1.305-0.061,1.958
			c9.293,0,18.585-0.057,27.875,0.136c0.575,0.011,1.296,1.708,2.393,0.613c0.356-0.356,0.447-1.656,0.242-1.771
			c-0.686-0.38-1.097-1.047-2.234-1.028C259.756,159.615,250.35,159.546,240.944,159.546z M409.109,148.749
			c-1.471-1.812-2.634-3.509-4.066-4.935c-1.423-1.417-1.457-6.03-4.813-3.346c-3.299,2.637-0.032,5.318,1.632,7.484
			C404.028,150.774,406.796,150.261,409.109,148.749z M334.46,161.079c-5.643-1.477-11.276-1.332-16.9,0
			C323.193,161.079,328.827,161.079,334.46,161.079z M410.301,160.903c6.143,3.188,12.492,1.492,20.67,1.649
			C422.956,159.539,416.577,160.398,410.301,160.903z M227.801,107.855c6.226,3.009,10.159-3.793,14.447,0.537
			C237.78,98.434,233.938,108.067,227.801,107.855z M220.647,124.962c-2.562,4.241-3.874,8.763-3.562,14.39
			C221.089,134.7,222.296,130.154,220.647,124.962z M427.068,147.5c-3.348-2.343-5.249-3.936-7.387-5.087
			c-1.746-0.939-2.795,0.057-3.533,1.894c-0.994,2.474,1.536,2.223,2.104,2.349C420.658,147.185,423.18,147.19,427.068,147.5z
			 M203.51,133.095c1.735-4.16,0.45-7.059-0.547-9.959c-0.598-1.741-2.153-1.417-3.356-1.032c-0.803,0.256-1.435,1.297-0.24,1.971
			C202.517,125.851,201.495,129.588,203.51,133.095z M253.211,142.346c-1.877-0.082-3.831-0.629-5.458-0.125
			c-2.111,0.653-5.355-3.194-5.657,0.11c-0.264,2.878,4.006,2.283,6.525,2.355C250.15,144.731,251.919,145.107,253.211,142.346z
			 M159.488,149.082c-3.589,2.071-6.83,0.691-8.334,3.422c-0.247,0.449,1.423,2.786,2.386,2.914
			C156.941,155.873,157.732,153.068,159.488,149.082z M246.075,119.628c3.639-2.307,5.856-3.712,8.27-5.242
			C248.498,110.101,247.504,113.95,246.075,119.628z M206.752,109.636c-4.861-1.306-7.368,0.898-9.184,4.488
			C201.94,115.474,204.543,113.36,206.752,109.636z M245.263,100.817c1.28-1.862,6.17,6.899,7.609-1.153
			C249.476,98.628,246.781,100.062,245.263,100.817z M151.713,145.984c2.13-0.178,1.152-2.333,1.702-3.598
			c1.065-2.455-1.855-2.532-2.361-2.558c-2.484-0.128-1.602,2.077-1.759,3.436C149.128,144.712,149.479,146.004,151.713,145.984z
			 M367.868,86.521c3.97-1.28,6.547-1.763,7.959-4.813C373.486,82.71,370.285,81.812,367.868,86.521z M382.625,100.806
			c-0.213-0.652,0.191-1.976-1.233-1.575c-1.259,0.354-2.309,1.21-2.682,2.578c-0.234,0.86,0.429,1.18,1.087,1.213
			C381.294,103.094,382.292,102.399,382.625,100.806z M392.165,100.61c0.177,0.366,0.271,0.928,0.554,1.047
			c0.333,0.143,0.83-0.097,1.255-0.171c-0.27-0.348-0.535-0.699-0.812-1.042C392.734,99.915,392.398,99.973,392.165,100.61z"/>
		<path fill-rule="evenodd" clip-rule="evenodd" fill="#080808" d="M506.745,258.389c0.002-20.457,0.104-40.915-0.085-61.371
			c-0.037-4.098,0.842-6.111,5.319-6.694c22.641-2.954,45.367-5.615,67.735,0.812c19.94,5.729,32.001,26.121,22.586,46.456
			c-2.225,4.803-5.701,8.425-9.985,10.977c-4.024,2.397-3.086,4.112-0.089,5.886c13.127,7.76,17.56,19.795,17.682,34.324
			c0.102,11.75-6.74,20.242-14.898,26.184c-12.793,9.317-28.535,12.118-44.189,13.074c-13.187,0.805-26.354-0.521-39.501-2.058
			c-4.802-0.562-4.624-2.839-4.613-6.22C506.776,299.303,506.741,278.845,506.745,258.389z M542.159,284.229
			c0,4.117,0.033,8.235-0.013,12.354c-0.024,2.243,0.124,3.919,3.189,3.955c7.048,0.083,13.955-0.089,20.284-3.821
			c9.502-5.604,10.538-15.484,2.946-23.322c-4.83-4.986-10.989-4.963-16.83-5.551c-9.54-0.958-9.581-0.555-9.577,8.836
			C542.161,279.195,542.159,281.711,542.159,284.229z M552.419,215.105c-10.273,0.029-10.273,0.029-10.267,10.117
			c0.001,2.058,0.007,4.116,0.005,6.174c-0.02,10.937,0.567,11.57,11.349,9.91c3.265-0.503,6.509-1.702,9.529-3.088
			c5.164-2.367,6.772-6.987,6.657-12.314c-0.11-5.088-2.888-7.858-7.613-9.73C558.644,214.812,555.35,215.447,552.419,215.105z"/>
		<path fill-rule="evenodd" clip-rule="evenodd" fill="#080808" d="M760.283,257.896c0.002-20.445,0.125-40.893-0.106-61.335
			c-0.044-3.958,0.864-5.674,4.952-6.069c17.377-1.678,34.555-4.083,52.27-2.296c11.542,1.165,22.519,3.139,32.667,8.229
			c16.813,8.434,27.211,22.265,30.305,40.933c3.267,19.7,2.504,38.773-8.178,56.787c-8.613,14.523-21.158,23.535-36.596,28.448
			c-14.933,4.754-30.557,6.433-46.255,5.456c-7.271-0.453-14.511-1.194-21.817-1.314c-4.925-0.08-7.633-1.935-7.455-8.198
			C760.641,298.338,760.282,278.112,760.283,257.896z M795.341,258.054c0,11.938-0.054,23.877,0.047,35.815
			c0.02,2.209-1.154,5.178,3.146,5.399c15.476,0.804,38.173-5.318,43.942-24.6c2.636-8.809,4.122-17.433,2.912-26.047
			c-1.438-10.228-4.603-20.094-14.364-26.502c-9.043-5.938-18.811-5.757-28.867-5.889c-5.185-0.067-7.195,1-6.958,6.701
			C795.685,234.622,795.344,246.345,795.341,258.054z"/>
		<path fill-rule="evenodd" clip-rule="evenodd" fill="#080808" d="M683.838,328.191c-21.458,0.778-37.932-6.073-49.699-20.804
			c-9.458-11.841-16.074-25.76-17.015-41.577c-1.076-18.165,2.423-35.306,12.517-50.532c23.121-34.875,73.65-40.155,103.148-8.205
			c9.962,10.791,14.911,24.263,16.617,39.214c1.531,13.416-0.349,26.139-4.289,38.658c-6.032,19.174-18.756,32.095-37.623,39.394
			C698.993,327.628,690.484,328.679,683.838,328.191z M712.401,256.909c0.755-4.987-0.215-9.973-1.051-14.908
			c-2.452-14.474-14.407-25.886-27.832-26.891c-10.585-0.794-23.059,9.509-27.003,23.007c-5.244,17.931-2.902,34.916,7.116,50.878
			c8.556,13.632,32.048,13.615,40.262-0.355C709.608,278.921,713.643,268.634,712.401,256.909z"/>
		<path fill-rule="evenodd" clip-rule="evenodd" fill="#080808" d="M133.716,387.035c-41.384,0-82.77-0.208-124.148,0.207
			c-6.804,0.068-6.636-2.388-5.403-7.177c3.709-14.406,7.5-28.796,10.87-43.282c0.904-3.888,2.413-5.2,6.365-5.196
			c79.542,0.097,159.083,0.107,238.625-0.008c4.062-0.006,4.979,1.31,4.931,5.109c-0.188,14.945-0.255,29.898,0.05,44.839
			c0.094,4.629-1.354,5.599-5.77,5.58c-41.839-0.174-83.68-0.104-125.519-0.104C133.716,387.015,133.716,387.025,133.716,387.035z
			 M149.256,362.298c-6.601-7.457-12.439-13.721-17.87-20.317c-3.141-3.815-7.192-3.067-10.662-2.22
			c-2.899,0.707-1.382,4.375-1.422,6.67c-0.176,10.104,0.137,20.218-0.162,30.316c-0.15,5.082,3.092,3.998,5.894,4.032
			c2.869,0.035,6,0.95,5.797-4.119c-0.238-5.971-0.837-12.06,0.477-17.994c2.439,0.109,3.415,1.561,4.357,2.724
			c4.402,5.429,8.916,10.8,12.88,16.543c2.743,3.974,6.501,3.025,9.89,2.717c3.876-0.354,2.043-3.911,2.083-6.015
			c0.188-10.102-0.187-20.223,0.225-30.312c0.195-4.79-1.951-5.162-5.691-5.022c-3.379,0.127-6.348-0.362-5.904,4.803
			C149.628,349.69,149.256,355.353,149.256,362.298z M182.099,359.876c0,5.743-0.004,11.486,0.003,17.229
			c0.002,1.801-0.408,3.817,2.545,3.708c11.152-0.412,22.533,1.413,32.147-7.228c7.824-7.033,6.492-24.624-2.424-30.136
			c-8.935-5.523-18.488-3.487-27.895-4.12c-3.89-0.262-4.582,1.335-4.442,4.698C182.252,349.303,182.091,354.593,182.099,359.876z
			 M56.061,381.505c4.884-2.181,10.575,2.428,12.763-4.437c0.79-2.48,0.612-5.479,4.076-4.969
			c4.972,0.732,12.169-3.116,14.548,2.226c3.701,8.312,9.282,6.425,16.342,6.111c-7.431-12.435-12.257-25.146-18.132-37.376
			c-2.211-4.603-5.614-3.301-8.97-3.741c-3.531-0.464-5.402,0.994-6.576,4.224C65.675,355.753,61.105,367.914,56.061,381.505z"/>
		<path fill-rule="evenodd" clip-rule="evenodd" fill="#080808" d="M18.684,326.887c8.491-27.973,16.991-54.999,24.846-82.211
			c4.922-17.05,11.438-33.659,14.474-51.251c0.574-3.327,2.856-4.782,6.311-4.759c11.947,0.082,23.906,0.33,35.838-0.105
			c4.845-0.176,5.304,3.427,6.035,5.932c9.91,33.907,20.774,67.515,31.486,101.171c2.727,8.568,5.16,17.23,7.884,25.8
			c1.158,3.644,1.503,5.781-3.72,5.55c-9.402-0.417-18.843-0.325-28.253-0.013c-3.54,0.117-4.795-1.469-5.72-4.328
			c-2.785-8.604-5.903-17.107-8.377-25.798c-0.85-2.988-1.889-4.251-4.962-4.211c-8.5,0.111-17.003,0.127-25.502,0.002
			c-3.066-0.045-4.334,1.062-5.104,4.137c-2.244,8.954-4.877,17.813-7.535,26.657c-0.652,2.168-1.951,3.601-4.907,3.529
			C40.923,326.73,30.359,326.887,18.684,326.887z M70.713,264.654c7.552,0,14.508,0,21.875,0
			c-5.058-13.036-6.927-26.505-11.575-39.213C78.102,238.699,74.908,251.623,70.713,264.654z"/>
		<path fill-rule="evenodd" clip-rule="evenodd" fill="#080808" d="M340.078,272.282c-1.986-35.659,24.242-59.279,57.042-62.681
			c17.254-1.788,32.949,1.284,48.004,9.44c15.141,8.202,21.271,22.406,25.358,37.853c5.107,19.296-2.618,35.841-13.374,50.657
			c-7.215,9.94-19.481,14.179-30.85,17.76c-14.865,4.683-30.083,3.519-45.185-0.912c-15.022-4.409-27.221-13.308-35.132-25.898
			C341.155,290.884,337.524,280.81,340.078,272.282z M434.271,269.131c-0.025-20.681-7.629-30.778-25.648-34.978
			c-7.061-1.646-19.673,3.514-23.926,9.484c-9.016,12.657-10.448,26.194-5.467,40.745c7.565,22.101,36.688,22.719,46.978,9.22
			C431.833,286.223,435.206,277.822,434.271,269.131z"/>
		<path fill-rule="evenodd" clip-rule="evenodd" fill="#CD2425" d="M326.285,270.446c0,17.706-0.031,35.413,0.03,53.119
			c0.01,2.974-1.139,6.549,3.755,7.406c1.944,0.341,1.195,2.735,1.201,4.22c0.058,15.637-0.089,31.275,0.128,46.909
			c0.056,4.085-1.532,5.06-5.227,5.035c-16.785-0.11-33.572-0.129-50.356,0.04c-4.017,0.041-5.04-1.474-4.994-5.283
			c0.184-15.404,0.128-30.812,0.043-46.219c-0.018-3.099,0.181-5.363,4.235-5.275c5.079,0.11,3.414-4.044,3.421-6.573
			c0.097-34.951,0.262-69.906-0.144-104.854c-0.08-6.851,1.839-8.429,8.36-8.08c11.006,0.589,22.076,0.43,33.1,0.039
			c5.07-0.179,6.716,1.116,6.617,6.401c-0.331,17.699-0.125,35.409-0.125,53.115C326.315,270.446,326.3,270.446,326.285,270.446z"/>
		<path fill-rule="evenodd" clip-rule="evenodd" fill="#CD2425" d="M157.68,175.122c7.058,2.745,14.204,1.391,21.245,0.124
			c2.279-0.41,4.332-1.121,6.531-0.048c1.349,0.215,2.698,0.618,4.048,0.62c66.992,0.046,133.984,0.067,200.977,0.035
			c2.156-0.001,4.676,0.679,6.232-1.738c3.32,2.296,7.271,2.822,11.005,2.751c14.867-0.28,29.879,1.816,44.54-2.319
			c10.849,2.16,21.667,2.265,32.402-0.681c17.708-4.859,35.409-9.741,53.088-14.694c2.419-0.678,4.702-1.338,7.675,0.262
			c-5.265,5.79-12.438,7.947-18.571,11.477c-14.75,8.485-29.951,16.176-44.895,24.33c-2.248,1.226-4.452,0.846-6.665,0.846
			c-112.186,0.044-224.373-0.023-336.558,0.194c-7.169,0.015-11.308-4.648-16.208-7.912c-14.41-9.599-28.328-19.935-42.467-29.941
			c-1.323-0.937-2.606-1.763-2.629-4.667c10.66,4.034,21.055,7.66,31.204,11.88c14.765,6.141,29.338,12.735,46.002,10.364
			C155.73,175.847,156.912,176.308,157.68,175.122z"/>
		<path fill-rule="evenodd" clip-rule="evenodd" fill="#080808" d="M226.045,249.871c-0.005-10.804,0.147-21.612-0.089-32.412
			c-0.082-3.729,0.667-5.255,4.798-5.108c8.954,0.318,17.932,0.243,26.893,0.028c3.451-0.082,4.731,0.702,4.693,4.475
			c-0.197,19.77,1.034,39.624-0.4,59.291c-1.654,22.687-3.783,40.38-41.169,49.942c-26.021,6.655-51.806,0.986-66.517-21.707
			c-4.386-6.766-6.038-14.706-6.157-22.619c-0.321-21.146,0.06-42.302-0.238-63.447c-0.07-5.035,1.589-6.162,6.228-5.961
			c8.032,0.348,16.101,0.353,24.131-0.007c4.317-0.193,5.34,1.104,5.291,5.362c-0.239,20.457-0.438,40.927,0.008,61.378
			c0.441,20.24,15.065,29.02,33.103,20.975c5.738-2.559,9.306-9.77,9.396-17.083C226.15,271.943,226.05,260.907,226.045,249.871z"/>
		<path fill-rule="evenodd" clip-rule="evenodd" fill="#080808" d="M872.811,188.686c13.088,0,24.802,0.082,36.515-0.063
			c2.697-0.034,4.233,0.807,5.185,3.311c4.889,12.875,11.434,25.083,15.413,38.333c1.036,3.452,2.228,6.892,4.697,10.188
			c4.317-6.003,5.34-13.158,8.183-19.511c4.248-9.49,8.14-19.142,11.997-28.799c1.138-2.847,2.872-3.572,5.772-3.524
			c9.883,0.168,19.776,0.266,29.654-0.011c5.216-0.146,5.336,1.612,3.141,5.495c-10.377,18.357-20.266,37.003-31.103,55.084
			c-7.522,12.551-13.34,24.944-11.633,40.276c1.163,10.445,0.027,21.131,0.318,31.699c0.118,4.326-0.788,6.095-5.568,5.842
			c-8.023-0.426-16.098-0.372-24.13-0.021c-4.23,0.187-5.518-0.978-5.405-5.286c0.302-11.718-0.872-23.554,0.376-35.146
			c1.451-13.488-3.986-24.313-9.948-35.371C895.271,230.78,884.384,210.314,872.811,188.686z"/>
		<path fill-rule="evenodd" clip-rule="evenodd" fill="#CD2425" d="M222.185,24.815c-0.271,9.868,3.317,19.187,4.16,28.914
			c0.235,2.719,2.785,3.888,5.598,3.439c1.48-0.234,3.388-1.529,3.83,0.973c0.522,2.961-2.138,2.362-3.743,2.633
			c-12.254,2.064-24.682,3.569-36.5,7.403c-9.621,3.121-20.131,3.222-29.021,8.812c-3.612,2.271-7.131,3.319-11.538,0.279
			c-4.418-3.047-9.908-4.576-13.792-8.573c-1.59-1.637-3.556-2.13-5.563-2.357c-3.587-0.407-6.423,0.046-4.595,4.979
			c1.921,5.183,2.259,11.391,10.087,11.702c2.528,0.101,2.502,2.835,0.805,3.867c-7.86,4.781-16.774,6.674-25.479,10.048
			c-0.535-3.68,1.518-3.833,2.731-4.595c3.542-2.225,3.974-5.175,2.19-8.658c-5.502-10.747-7.673-23.125-15.927-32.522
			c-1.133-1.289-1.271-2.425,0.613-3.066c11.792-4.012,22.458-11.157,35.12-12.722c2.491-0.308,5.099-0.48,7.557-0.096
			c4.955,0.774,8.623,3.885,9.333,8.711c0.596,4.052-1.26,7.848-5.161,10.303c-1.838,1.158-3.812,2.188-5.029,4.39
			c-0.942,1.703-0.638,2.663,0.803,2.862c6.517,0.903,11.547,5.235,17.544,7.383c4.419,1.583,8.748,1.031,12.988,0.818
			c6.153-0.31,6.155-5.192,4.959-9.609c-2.665-9.841-5.974-19.513-8.443-29.398c-0.872-3.488-2.935-2.786-5.051-2.988
			c-1.217-0.116-2.307-0.368-2.294-1.873c0.008-0.992,0.531-1.76,1.576-1.908c7.989-1.143,15.505-4.898,25.729-4.805
			c-6.98,3.537-6.763,7.778-5.293,12.819c2.537,8.694,4.861,17.478,6.655,26.35c0.83,4.107,3.089,4.732,6.241,4.262
			c3.354-0.5,6.701-1.291,9.924-2.342c3.033-0.989,4.026-3.578,3.684-6.596c-1.183-10.411-2.315-20.828-3.699-31.213
			c-0.807-6.046-6.981-3.646-10.506-5.808c11.501-6.887,22.887-5.157,32.621,3.161c9.457,8.082,17.635,17.736,29.808,25.291
			c-5.008-12.842-0.829-26.657-11.073-36.688c5.291-3.237,11.212-1.703,17.811-1.62c-2.62,3.274-3.501,6.499-3.049,10.156
			c1.286,10.404,2.415,20.828,3.596,31.246c0.264,2.331,2.833,5.944-0.043,6.678c-3.522,0.9-7.508,3.62-11.632,0.058
			c-8.621-7.442-17.37-14.772-26.497-21.571c-3.933-2.929-6.337-8.268-12.192-8.428c0.565-0.363,0.574-0.733-0.018-1.015
			c-0.165-0.078-0.429,0.051-0.647,0.086C221.636,24.264,221.91,24.539,222.185,24.815z M144.467,51.051
			c-0.02-5.212-2.138-8.972-7.685-9.35c-5.502-0.376-14.97,4.637-14.885,7.388c0.134,4.321,5.481,11.792,8.456,11.813
			C136.35,60.947,144.342,55.368,144.467,51.051z"/>
		<path fill-rule="evenodd" clip-rule="evenodd" fill="#CD2425" d="M546.572,124.525c4.11-1.043,4.908,1.521,6.557,2.458
			c2.534,1.441,4.98,1.653,6.84-0.476c6.607-7.559,15.767-12.154,22.401-19.777c2.362-2.717,4.274-4.941,3.666-9.054
			c8.584,3.226,12.061,10.96,17.467,16.463c6.856,6.979,13.749,14.134,14.521,25.188c0.53,7.615-0.897,13.884-6.912,18.412
			c-6.227,4.69-12.954,9.306-21.334,5.725c-8.163-3.486-15.638-7.8-21.406-15.183C561.962,140.075,554.305,132.845,546.572,124.525z
			 M587.512,154.511c5.286,0.188,18.599-10.46,20.896-16.763c3.508-9.633-3.771-14.918-8.582-21.204
			c-2.815-3.677-4.971-3.504-8.876-0.483c-6.798,5.259-11.65,12.752-19.702,16.564c-2.757,1.305-3.809,4.805-3.507,7.551
			C568.188,144.255,582.812,154.344,587.512,154.511z"/>
		<path fill-rule="evenodd" clip-rule="evenodd" fill="#CD2425" d="M39.657,88.662c14.919-8.628,26.403-21.117,43.005-25.088
			c5.621-1.345,10.178-1.432,14.125,4.56c3.821,5.802,1.874,9.703-1.441,14.057c-3.938,5.169-9.783,8.126-14.524,12.37
			c-1.958,1.753-6.428,2.246-3.801,6.386c2.769,4.361,2.528,11.882,10.757,10.947c0.862-0.097,1.745-0.012,4.11-0.012
			c-7.898,7.832-16.722,11.973-25.669,17.237c9.825-6.69,3.768-12.65,0.059-18.544c-4.099-6.516-8.52-12.831-12.617-19.349
			c-1.943-3.091-4.598-3.602-7.689-2.727C44.327,88.964,42.955,90.582,39.657,88.662z M77.644,71.76
			c-4.611,0.103-14.725,6.41-14.599,9.5c0.101,2.458,8.339,13.699,9.9,13.507c4.217-0.519,14.098-10.708,13.709-14.468
			C86.146,75.384,84.369,71.383,77.644,71.76z"/>
		<path fill-rule="evenodd" clip-rule="evenodd" fill="#CD2425" d="M454.682,78.499c-0.52-4.538,5.79-8.117,1.844-13.135
			c2.8-6.716,5.666-13.407,8.375-20.162c1.093-2.725,2.95-5.757,2.552-8.357c-1.468-9.594,4.08-5.075,7.414-3.809
			c10.358,3.935,20.621,8.125,30.849,12.39c3.412,1.423,6.588,3.167,4.281,8.075c-0.871,1.85-1.669,4.698-3.081,4.847
			c-2.485,0.263-2.244-2.725-2.895-4.572c-1.417-4.013-17.995-13.422-21.834-11.972c-4.915,1.855-3.339,7.414-5.269,11.051
			c-1.472,2.776,0.804,3.641,2.65,4.425c3.548,1.507,6.628,3.968,10.532,4.793c2.263,0.478,4.246,1.606,5.828-1.268
			c1.134-2.063,2.761-1.571,4.628-0.443c2.878,1.735,0.231,3.11-0.15,4.475c-0.48,1.726-1.366,3.425-2.429,4.879
			c-1.265,1.729-1.154,5.164-3.713,5.057c-2.977-0.124-2.132-3.382-2.835-5.44c-1.639-4.79-6.98-3.571-10.306-5.783
			c-5.174-3.441-8.062-1.264-10.498,4.039c-4.764,10.373-5.032,10.249,5.813,14.514c11.035,4.34,12.694,4.55,19.995,2.528
			c0.896,9.744-0.279,10.61-8.885,7.069C476.63,87.205,465.641,82.891,454.682,78.499z"/>
		<path fill-rule="evenodd" clip-rule="evenodd" fill="#CD2425" d="M385.881,60.722c-10.397-1.434-20.794-2.866-31.836-4.387
			c1.741-3.222,3.754-2.226,5.367-2.453c3.041-0.426,5.125-2.001,5.594-5.119c1.547-10.297,2.015-20.755,4.885-30.856
			c1.333-4.69-3.009-6.285-7.019-9.607c13.795,0.547,25.611,3.126,37.48,5.066c3.557,0.582,7.208,0.062,10.77,1.542
			c2.024,0.841,3.894,1.796,2.713,3.447c-1.743,2.437,0.041,6.387-3.351,7.674c-3.368,1.276-2.75-2.172-3.603-3.664
			c-4.215-7.363-11.839-4.308-17.848-5.562c-9.199-1.921-5.819,6.721-7.153,10.731c-1.386,4.167,2.756,4.394,5.933,5.452
			c6.086,2.029,11.737,4.064,16.584-2.211c0.284-0.367,1.775-0.415,1.857-0.232c1.562,3.482-0.824,6.692-0.974,10.121
			c-0.092,2.114-2.89,3.064-4.625,0.724c-4.899-6.605-12.478-1.754-18.288-4.41c-0.428-0.197-1.604,0.713-2.134,1.354
			c-4.548,5.503-2.293,16.195,3.936,19.032c0.776,0.354,1.458,0.917,2.184,1.381C386.197,59.403,386.039,60.063,385.881,60.722z"/>
		<path fill-rule="evenodd" clip-rule="evenodd" fill="#CD2425" d="M182.143,423.605c0.053,3.274-4.018,4.084-4.525,3.6
			c-5.983-5.731-13.473,4.605-19.264-1.922c-0.307-0.347-2.366,0.71-3.517,1.295c-2.721,1.384-5.638,1.397-7.777-0.469
			c-2.271-1.982-1.722-5.005-0.838-7.7c0.422-1.29,1.143-2.502,1.423-3.814c0.275-1.287,2.27-2.873-0.307-3.934
			c-2.573-1.059-2.366,0.924-2.757,2.469c-1.344,5.323-6.534,7.751-9.228,12.079c0.992,2.21,5.916,2.956,4.151,5.269
			c-2.189,2.869-6.219,2.492-8.476-1.26c-1.585-2.636-3.993-1.887-6.114-1.721c-5.508,0.43-9.731-1.674-11.434-6.798
			c-1.994-6.001,0.304-11.491,4.205-16.139c0.739-0.88,2.58-2.175,4.233-0.971c1.819,1.325,1.573,3.487,0.894,5.049
			c-1.387,3.191-2.386,6.294-2.396,9.868c-0.013,4.84,2.059,6.658,6.632,5.988c0.551-2.262-3.73-2.139-2.201-4.202
			c1.008-1.359,3.718-1.471,5.035-0.284c2.762,2.49,3.465,0.265,4.265-1.513c2.481-5.519,6.119-10.83,2.408-17.344
			c-1.306-2.292,0.625-2.763,2.398-2.276c1.515,0.415,3.355,0.996,3.8,2.669c1.54,5.786,4.807,6.155,10.003,4.425
			c4.384-1.459,5.074,1.66,3.673,5.101c-1.414,3.471-3.17,6.803-5.046,10.768c5.341,0.252,8.563-1.181,9.8-6.304
			c1.792-7.422,3.638-8.678,11.216-8.042c-1.721,3.767-3.477,7.34-4.798,11.067c-0.097,0.273-1.359,3.246,1.538,3.975
			c3.466,0.873,1.584-1.665,1.867-2.551c3.051-9.526,9.894-14.542,19.647-14.236c4.38,0.138,5.932,3.528,4.174,7.598
			c-1.435,3.321-4.83,5.999-2.387,10.932c1.179,2.38-2.842,3.888-5.778,2.913c-1.862-0.617-2.275-3.394-4.653-3.464
			c3.203-4.068,5.994-8.319,6.793-13.75c-3.272-0.209-5.396,1.427-7.367,2.649c-2.897,1.798-3.322,5.102-3.175,8.43
			C178.386,423.896,180.511,423.282,182.143,423.605z"/>
		<path fill-rule="evenodd" clip-rule="evenodd" fill="#CD2425" d="M524.226,55.002c7.287,3.013,13.859,7.121,19.726,12.314
			c0.363,0.321,2.141,1.722,0.028,3.214c-9.304,6.569-12.532,17.6-18.751,26.443c-5.148,7.322-4.666,7.657,3.586,12.486
			c1.188,0.695,2.59,1.224,3.48,2.203c4.619,5.08,9.677,6.444,15.631,2.339c0.976-0.672,1.949-1.028,3.024,0.089
			c1.158,1.202,0.149,2.083-0.241,3.024c-3.8,9.144-4.536,9.369-12.984,4.095c-12.165-7.59-24.315-15.204-36.509-22.747
			c-1.589-0.984-3.656-1.682-2.481-4.005c0.96-1.898,2.957-1.427,4.156-0.361c5.891,5.242,8.869-0.711,10.612-3.805
			c4.482-7.952,9.662-15.423,14.544-23.089C531.894,61.154,524.825,59.696,524.226,55.002z"/>
		<path fill-rule="evenodd" clip-rule="evenodd" fill="#CD2425" d="M385.917,413.161c-4.729,2.38-4.729,2.38-10.245,2.146
			c-1.349-1.966,4.718-3.286,0.571-5.265c-2.739-1.306-4.412,0.758-6.132,2.826c-2.83,3.402-0.311,7.129,0.478,9.579
			c0.944,2.936,4.506,0.174,6.73-1.376c0.667-0.465,1.676-0.436,2.655-0.661c-1.466,4.357-4.808,6.828-9.288,6.98
			c-3.928,0.135-7.469-1.602-9.005-4.808c-1.713-3.575,0.557-6.871,3.235-9.725c2.724-2.901,5.834-5.168,9.44-6.615
			c1.607-0.646,4.387-1.149,5.285-0.298c3.701,3.518,7.148,4.455,12.264,2.712c1.698-0.58,4.412,0.241,6.564-1.312
			c4.349-3.139,9.282,1.33,13.963-0.888c1.119-0.531,2.055,2.176,1.468,3.835c-0.755,2.134-1.835,4.152-2.657,6.267
			c-0.79,2.036-3.304,4.423-1.353,6.203c2.652,2.417,4.527-1.347,6.096-2.571c3.048-2.378,5.243-5.931,2.846-10.124
			c-0.85-1.488-0.946-2.562,0.419-3.457c0.664-0.435,2.293-0.702,2.381-0.518c3.103,6.482,7.36,1.502,10.726,0.743
			c4.074-0.917,5.067-0.481,3.559,3.564c-1.267,3.398-1.828,7.076-4.219,10.008c-0.66,0.81-1.732,1.631-0.25,2.757
			c0.926,0.704,5.126-0.828,2.111,2.685c-2.083,2.427-5.143,2.111-7.662,0.969c-1.639-0.744-3.266-2.558-2.193-4.835
			c1.163-2.469,2.844-4.707,3.855-7.224c0.353-0.877,1.725-2.618-0.057-3.415c-1.492-0.665-2.657,0.526-3.127,1.912
			c-1.405,4.147-3.975,7.466-7.122,10.388c-3.806,3.535-8.097,5.686-12.842,2.128c-4.78-3.581-0.746-7.146,0.645-10.653
			c0.409-1.03,0.679-2.116,0.964-3.022c-9.939-1.882-14.318,3.498-15.553,12.137c-0.674,4.717-3.987,3.514-6.113,2.9
			c-3.634-1.049-0.39-3.217,0.006-4.786C385.126,419.323,387.172,416.548,385.917,413.161z"/>
		<path fill-rule="evenodd" clip-rule="evenodd" fill="#CD2425" d="M295.925,48.601c-0.689-1.373-1.861-1.838-3.318-1.764
			c-9.746-11.303-9.546-26.11,0.511-35.601c3.265-3.082,6.95-4.398,11.663-4.805c7.327-0.632,14.356-3.821,22.016-1.428
			c4.201,1.312,8.742,1.49,13.062,2.478c2.587,0.591,5.251,10.23,3.341,12.034c-2.068,1.954-3.446,0.62-4.859-1.341
			c-9.314-12.922-30.232-12.02-37.084,1.924c-2.764,5.623-2.041,12.09-0.064,18.179c0.63,1.943,1.017,3.965,1.519,5.952
			c-1.359,3.498,0.949,4.371,3.372,3.692c6.088-1.71,8.148,1.018,8.257,6.538C307.743,53.972,301.032,53.805,295.925,48.601z"/>
		<path fill-rule="evenodd" clip-rule="evenodd" fill="#CD2425" d="M435.01,65.328c-4.533,1.155-9.065,2.308-13.595,3.461
			c-3.523-1.384-6.28-1.598-1.887-6.646c5.282-6.068,4.834-15.318,8.14-22.779c1.084-2.446,1.362-5.246,2.041-7.877
			c1.14-4.421,1.952-8.69-4.322-9.837c-1.501-0.275-2.895-0.97-2.25-2.618c0.77-1.97,2.342-0.471,3.479-0.171
			c5.7,1.504,11.348,3.209,17.062,4.649c3.212,0.809,4.588,2.546,2.558,5.328c-7.413,10.155-7.706,22.43-10.492,33.966
			C435.539,63.654,435.257,64.487,435.01,65.328z"/>
		<path fill-rule="evenodd" clip-rule="evenodd" fill="#CD2425" d="M239.606,398.844c-0.556,1.504-0.811,2.799-1.474,3.833
			c-0.829,1.289-1.281,2.865-0.331,3.748c1.078,1.003,3,1.556,4.434,0.543c2.837-2.003,5.721-2.01,7.972,0.322
			c2.644,2.739-1.264,4.263-1.816,6.448c-0.693,2.732-5.25,6.044-1.396,8.013c3.789,1.934,4.338-3.392,5.938-5.838
			c2.411-3.688,3.207-10.979,9.082-8.23c3.271,1.53-1.181,6.932-2.626,10.406c-2.828,6.798-4.378,14.28-13.896,16.021
			c-4.54,0.829-7.273-0.594-11.739-2.639c5.266-1.978,8.448-4.045,5.048-9.314c-1.304-2.021,1.267-4.174,1.684-6.34
			c0.309-1.603,4.168-3.14,0.045-5.08c-3.198-1.507-5.601-1.798-7.343,1.786c-1.287,2.648-2.877,5.185-3.831,7.943
			c-0.642,1.856-0.291,4.194,2.604,2.306c1.857-1.21,2.679-1.634,2.623,1.11c-0.065,3.168-3.083,2.33-4.626,3.092
			c-2.125,1.05-5.161,1.412-7.131-0.291c-1.21-1.046-1.348-3.724-0.314-5.169c2.777-3.883,6.476-7.351,2.896-12.624
			C230.955,406.929,231.951,398.496,239.606,398.844z"/>
		<path fill-rule="evenodd" clip-rule="evenodd" fill="#CD2425" d="M301.499,197.034c8.035,0,16.08,0.237,24.102-0.083
			c5.372-0.214,4.216,3.281,4.438,6.334c0.248,3.412-0.167,5.566-4.585,5.504c-15.838-0.218-31.682-0.214-47.52-0.007
			c-5.167,0.067-4.404-3.146-4.598-6.354c-0.214-3.553,0.447-5.577,4.75-5.417c7.795,0.291,15.609,0.083,23.414,0.083
			C301.499,197.074,301.499,197.054,301.499,197.034z"/>
		<path fill-rule="evenodd" clip-rule="evenodd" fill="#CD2425" d="M764.632,421.87c3.542,2.974,6.301,1.676,8.979-1.031
			c0.724-0.731,1.756-1.893,2.752-0.388c0.665,1.008,0.543,2.271-0.634,2.955c-2.343,1.36-4.637,2.955-7.167,3.817
			c-6.142,2.096-11.443-5.101-19.039-0.373c-5.039,3.138-13.615,0.596-20.91,0.596c3.75-9.836,10.104-17.926,9.907-28.548
			c10.523-1.682,10.573-1.656,6.667,9.089c-1.39,3.823-2.862,7.637-4.637,11.29c-0.831,1.71-0.748,3.129,0.18,4.438
			c1.271,1.8,2.759,0.394,4.212-0.023c6.664-1.91,12.548-4.474,16.001-11.343c2.125-4.227,7.017-5.638,11.532-6.557
			c3.446-0.702,5.656,1.245,6.848,4.364c1.273,3.332-1.274,4.16-3.438,5.588C772.363,418.068,767.439,417.815,764.632,421.87z
			 M773.992,410.366c-5.688-1.623-7.516,1.038-8.141,5.935C769.449,415.376,772.22,414.125,773.992,410.366z"/>
		<path fill-rule="evenodd" clip-rule="evenodd" fill="#CD2425" d="M320.417,55.043c-1.108-1.393-2.093-2.826-1.446-4.749
			c14.121-0.41,13.606-0.415,13.742-14.313c0.067-6.863-6.199-5.207-9.996-9.528c11.083,0,20.744-0.014,30.404,0.021
			c1.021,0.002,1.683,0.719,1.686,1.756c0.003,1.361-0.845,2.179-2.142,2.049c-7.628-0.765-6.289,4.606-6.256,9.064
			c0.1,13.527,0.09,13.358-13.225,14.769C328.925,54.565,324.765,55.883,320.417,55.043z"/>
		<path fill-rule="evenodd" clip-rule="evenodd" fill="#CD2425" d="M621.321,398.928c-6.668,6.848-8.232,15.113-10.863,22.627
			c-1.94,5.539-4.447,7.041-9.819,5.432c-0.151-2.252,1.923-4.108,1.901-6.105c-0.028-2.559,6.064-4.218,1.273-7.017
			c-4.024-2.352-13.086,0.127-13.804,3.682c-0.634,3.132-2.231,6.344-0.58,9.802c-3.516,0-6.716,0-9.864,0
			c2.875-9.145,8.724-17.224,8.321-27.252c-0.091-2.219,1.782-1.6,2.925-1.64c3.168-0.116,6.345-0.04,11.707-0.04
			c-6.643,3.724-9.782,9.168-7.819,13.27c1.577,3.299,7.997,1.156,10.828-1.642c2.545-2.517,6.929-6.04,1.111-11.116
			C611.856,398.928,616.164,398.928,621.321,398.928z"/>
		<path fill-rule="evenodd" clip-rule="evenodd" fill="#CD2425" d="M291.356,412.193c-1.04,1.535-1.96,3.018-3.004,4.408
			c-1.897,2.525-0.562,4.314,1.358,5.845c2.205,1.758,4.97,1.656,7.065,0.4c2.661-1.594,0.16-3.631-0.548-5.282
			c-2.09-4.871-6.563-9.2-1.653-15.099c1.747-2.098,3.522-3.246,5.93-4.134c4.376-1.615,9.577-2.575,11.425,2.094
			c1.873,4.731-2.658,8.1-7.027,8.968c-5.429,1.078-4.097,4.453-2.129,6.381c2.914,2.851,3.278,11.975,11.174,5.716
			c0.641-0.508,2.233,0.983,1.182,2.808c-1.5,2.605-4.546,3.351-6.411,2.897c-6.781-1.646-13.367,0.494-20.002,0.142
			c-5.225-0.277-9.316-5.231-8.629-9.696C280.771,413.195,285.299,410.916,291.356,412.193z M307.162,402.234
			c-0.687-1.331-2.204-2.427-3.5-2.149c-2.737,0.588-3.774,2.858-3.721,5.592c0.027,1.421,0.663,2.082,2.081,1.515
			C304.335,406.268,306.499,405.145,307.162,402.234z"/>
		<path fill-rule="evenodd" clip-rule="evenodd" fill="#CD2425" d="M632.018,428.007c-4.793-5.88-4.521-9.666,1.071-16.066
			c5.68-6.498,11.308-7.815,17.307-4.125c1.171,0.721,2.248,1.167,2.349,2.934c0.495,8.682-8.079,20.888-16.601,23.351
			c-1.084,0.314-2.22,0.677-3.321,0.646c-3.15-0.086-6.996-1.607-7.145-4.125C625.454,426.834,629.954,430.268,632.018,428.007z
			 M638.645,422.694c1.96-0.083,8.622-10.57,7.74-12.325c-0.535-1.065-1.69-1.435-2.879-1.255
			c-3.499,0.532-8.031,7.641-7.294,11.246C636.509,421.814,637.037,422.779,638.645,422.694z"/>
		<path fill-rule="evenodd" clip-rule="evenodd" fill="#CD2425" d="M677.326,421.97c-0.723,4.883-3.958,6.875-8.104,5.044
			c-4.481-1.979-1.118-5.59-0.595-8.619c0.402-2.335,4.532-4.97,0.736-6.946c-3.726-1.938-6.277,0.981-7.887,4.306
			c-0.293,0.603-0.363,1.319-0.487,1.991c-0.675,3.637-3.109,5.725-7.078,7.95c-0.626-9.013,4.373-15.566,6.583-22.857
			c2.012-6.634,2.345-6.934,9.945-6.506c-1.68,3.448-3.322,6.818-5.383,11.044c5.159-1.719,9.672-3.19,12.049,2.748
			c1.468,3.665-1.36,6.018-2.428,8.904c-1.088,2.94-1.145,2.918,2.785,3.111L677.326,421.97z"/>
		<path fill-rule="evenodd" clip-rule="evenodd" fill="#CD2425" d="M505.743,407.805c-2.642,3.745-6.468,6.514-7.197,11.144
			c-0.242,1.541-0.972,3.301,0.736,4.289c1.357,0.786,3.067-0.126,3.615-1.182c2.171-4.188,7.679-7.408,4.354-13.33
			c-0.584-1.042-0.727-1.344,0.544-1.741c1.825-0.573,3.583-2.629,5.465-0.504c1.207,1.36,3.995,2.211,2.861,4.672
			c-2.004,4.354-6.247,7.837-3.605,13.71c0.62,1.38-2.771,3.801-4.519,2.348c-3.56-2.962-6.267-1.101-9.615,0.049
			c-2.836,0.973-5.459-0.682-6.509-3.63C489.723,417.582,498.545,407.197,505.743,407.805z"/>
		<path fill-rule="evenodd" clip-rule="evenodd" fill="#CD2425" d="M552.08,425.953c-3.107,0.477-6.143,1.626-7.97-1.163
			c-1.779-2.717-0.617-5.611,0.721-8.422c3.698-7.771,10.729-11.984,18.954-10.474c4.008,0.735,6.294,3.634,3.278,7.385
			c-2.223,2.766-3.272,5.871-2.979,8.836c0.335,3.393-1.093,4.499-3.554,4.062c-2.542-0.451-5.532-1.605-4.06-5.471
			c1.284-3.372,2.629-6.719,3.975-10.143C552.037,410.78,548.658,416.685,552.08,425.953z"/>
		<path fill-rule="evenodd" clip-rule="evenodd" fill="#CD2425" d="M830.052,400.104c-0.85-1.769,0.418-2.479,1.897-2.939
			c2.562-0.796,5.32-2.466,7.802-0.75c1.61,1.114-0.313,2.865-0.882,4.176c-2.439,5.607-5.196,11.081-7.537,16.728
			c-0.823,1.987-4.417,4.342,0.195,6.561c1.219,0.586-0.158,2.109-1.012,2.67c-2.022,1.332-4.414,1.476-6.507,0.476
			c-1.359-0.649-2.231-2.128-1.525-4.011c2.296-6.124,4.556-12.263,6.715-18.436C829.685,403.188,831.346,402.035,830.052,400.104z"
			/>
		<path fill-rule="evenodd" clip-rule="evenodd" fill="#CD2425" d="M353.373,423.672c0.854-5.139-1.431-7.709-6.325-9.399
			c-3.922-1.355-7.846-3.75-6.629-9.367c1.255-5.797,4.919-6.729,10.223-6.148c3.758,0.412,7.658-0.464,11.771-0.786
			c0.121,1.056,0.465,2.398,0.376,3.711c-0.116,1.714,0.973,4.152-1.01,4.967c-2.377,0.978-2.678-1.816-3.65-3.159
			c-1.13-1.562-2.629-2.543-4.334-3.268c-2.978-1.27-5.779,0.112-7.095,2.218c-1.345,2.153,0.903,4.101,2.795,5.578
			c2.721,2.125,6.689,1.985,8.311,6.372c1.999,5.408,1.117,8.157-4.56,9.158L353.373,423.672z"/>
		<path fill-rule="evenodd" clip-rule="evenodd" fill="#CD2425" d="M201.208,427.459c-4.981,0.176-6.54-2.395-4.36-6.938
			c3.143-6.551,6.635-13.117,5.958-20.64c-0.259-2.873,1.415-2.404,2.713-2.61c2.482-0.395,4.937-3.006,7.551-0.068
			c1.55,1.741,0.112,3.001-0.46,4.296c-2.115,4.777-4.579,9.41-6.535,14.249c-1.047,2.592-4.431,4.859-1.18,8.535
			C205.773,425.276,203.835,427.968,201.208,427.459z"/>
		<path fill-rule="evenodd" clip-rule="evenodd" fill="#CD2425" d="M461.013,411.042c4.354-0.254,7.012-4.397,11.667-4.636
			c3.638-0.188,6.332,0.262,7.591,3.555c1.388,3.629-1.234,5.266-4.205,6.515c-3.5,1.471-6.921,3.128-10.335,4.686
			c0.686,3.69,4.197,1.511,5.859,3.144c-2.557,5.093-6.598,3.473-9.912,1.646c-3.507-1.931-4.393-5.241-3.005-9.399
			c0.668-2,3.975-2.815,2.456-5.637L461.013,411.042z M465.701,417.121c3.632-1.594,7.267-1.688,8.456-5.605
			c0.316-1.041-0.743-1.615-1.697-1.658C467.978,409.656,467.76,413.662,465.701,417.121z"/>
		<path fill-rule="evenodd" clip-rule="evenodd" fill="#CD2425" d="M816.602,423.472c-5.553,5.161-10.317,5.161-14.204,1.209
			c-3.574-3.637-2.405-7.816,1.053-11.485c3.547-3.763,7.638-6.508,12.736-7.347c3.554-0.585,6.382,0.703,6.924,4.694
			c0.517,3.808-2.188,5.181-5.197,6.05c-1.979,0.573-3.397-0.115-2.517-2.34c0.868-2.195,2.791-4.332-1.615-4.456
			c-3.901-0.111-5.766,3.232-5.322,5.614C809.137,419.051,806.831,426.212,816.602,423.472z"/>
		<path fill-rule="evenodd" clip-rule="evenodd" fill="#CD2425" d="M677.463,422.14c-1.345-8.361,8.473-15.236,16.615-16.415
			c2.699-0.391,4.019,1.15,5.254,3.396c1.336,2.426-0.136,4.007-1.133,5.627c-0.752,1.222-2.417,0.984-3.804,0.871
			c-1.027-0.084-1.965-0.523-1.492-1.579c1.135-2.539,1.652-4.896-2.245-4.021c-2.889,0.648-5.59,2.55-4.749,6.229
			c0.265,1.156,1.971,2.129,0.841,3.534c-3.757,4.671,0.945,3.6,2.65,3.502c1.632-0.093,3.253-1.348,4.769-2.271
			c1.291-0.785,2.005-0.569,2.625,0.771c0.529,1.145-0.153,1.412-0.911,2.051c-6.052,5.108-13.576,4.397-18.556-1.862
			C677.326,421.97,677.463,422.14,677.463,422.14z"/>
		<path fill-rule="evenodd" clip-rule="evenodd" fill="#CD2425" d="M702.711,427.415c-4.018,0.274-4.154-1.536-2.694-4.521
			c1.575-3.218,4.708-6.125,4.359-9.723c-0.355-3.669-0.38-5.253,2.883-6.375c0.555-0.191,1.548-0.448,1.714-0.221
			c2.692,3.688,5.112,0.952,7.593-0.241c2.445-1.175,4.122-0.191,4.721,2.16c0.562,2.208-1.009,3.785-2.992,3.677
			c-7.83-0.426-8.585,5.777-10.531,10.854C706.82,425.486,705.901,427.771,702.711,427.415z"/>
		<path fill-rule="evenodd" clip-rule="evenodd" fill="#CD2425" d="M522.062,427.509c-5.334-0.189-6.243-3.717-4.768-6.703
			c2.799-5.659,1.673-12.891,7.473-17.425c1.779-1.391,3.083-4.078,5.388-2.7c2.649,1.585,2.488,4.729,0.726,7.035
			c-2.505,3.276-4.965,6.496-6.237,10.483c-0.624,1.954-2.129,3.092,0.337,5.762C527.773,426.987,523.061,426.533,522.062,427.509z"
			/>
		<path fill-rule="evenodd" clip-rule="evenodd" fill="#CD2425" d="M621.914,427.362c-5.345,0.107-7.035-1.6-4.898-6.67
			c1.359-3.219,3.039-6.208,2.324-10.52c-0.704-4.239,5.167-2.677,7.872-4.093c1.51-0.79,1.814,2.708,1.306,4.3
			c-0.825,2.572-2.395,4.903-3.246,7.471c-0.527,1.582-4.169,4.383,1.219,4.768c1.015,0.071,0.785,1.427,0.148,2.192
			C625.319,426.401,624.067,428.189,621.914,427.362z"/>
		<path fill-rule="evenodd" clip-rule="evenodd" fill="#CD2425" d="M795.678,419.753c-2.295,4.832-4.903,6.896-8.443,7.563
			c-2.873,0.542-5.661-0.287-7.38-2.629c-1.473-2.008-0.247-4.027,0.654-6.266c0.942-2.342,3.859-4.556,1.658-7.899
			c-1.475-2.236,1.505-2.988,2.356-3.022c1.98-0.079,3.79-2.771,5.537-0.932c0.971,1.021,2.42,2.7,0.988,4.844
			c-1.512,2.264-2.754,4.758-3.765,7.291c-0.579,1.453-2.96,3.111-0.796,4.653c1.633,1.161,3.368-0.114,4.808-1.43
			C792.051,421.235,793.183,420.958,795.678,419.753z"/>
		<path fill-rule="evenodd" clip-rule="evenodd" fill="#CD2425" d="M453.656,424.394c-4.371,4.119-12.063,4.172-15.306,0.12
			c-2.759-3.446-1.219-10.976,2.868-13.928c1.785-1.289,4.085-1.775,5.645-0.501c1.706,1.392-0.497,2.604-1.204,3.895
			c-1.201,2.189-3.573,3.867-1.862,7.198c1.75,3.409,4.257,2.478,6.861,2.359C451.704,423.488,452.903,423.253,453.656,424.394z"/>
		<path fill-rule="evenodd" clip-rule="evenodd" fill="#CD2425" d="M222.943,405.381c-1.847,5.41-3.262,9.384-4.547,13.399
			c-0.546,1.704-4.841,3.662,0.471,5.243c1.455,0.434-0.072,2.478-1.121,3.2c-1.362,0.938-3.087,0.941-4.592,0.312
			c-2.072-0.867-2.966-3.054-3.012-4.858c-0.112-4.322,5.625-8.001,1.515-12.891c0.903-0.639,1.723-1.507,2.726-1.869
			C216.663,407.092,219.033,406.516,222.943,405.381z"/>
		<path fill-rule="evenodd" clip-rule="evenodd" fill="#CD2425" d="M306.27,415.148c2.1-4.428,5.334-5.825,9.453-4.646
			c1.155,0.331,3.267,1.814,2.018,3.542C314.501,418.522,310.361,414.812,306.27,415.148z"/>
		<path fill-rule="evenodd" clip-rule="evenodd" fill="#CD2425" d="M461.128,410.915c-5.5,4.26-8.688-2.737-13.571-2.583
			c6.951-4.058,9.31-3.546,13.452,2.715C461.013,411.042,461.128,410.915,461.128,410.915z"/>
		<path fill-rule="evenodd" clip-rule="evenodd" fill="#CD2425" d="M798.285,416.493c1.06-3.697-6.896-5.791-1.615-10.058
			c1.547-1.25,3.222-0.75,4.144,0.609C803.473,410.968,799.801,413.423,798.285,416.493z"/>
		<path fill-rule="evenodd" clip-rule="evenodd" fill="#CD2425" d="M342.207,426.341c-7.718,0.068-7.718,0.068-6.429-9.885
			c2.233,3.868,6.831,5.057,6.384,9.942L342.207,426.341z"/>
		<path fill-rule="evenodd" clip-rule="evenodd" fill="#CD2425" d="M432.229,400.325c0.294-1.695,1.578-2.906,3.523-3.118
			c2.708-0.295,3.464,1.863,3.853,3.86c0.351,1.796-1.155,2.176-2.591,2.225C434.921,403.365,432.822,403.377,432.229,400.325z"/>
		<path fill-rule="evenodd" clip-rule="evenodd" fill="#CD2425" d="M226.01,400.105c-0.274,2.285-1.618,3.134-3.653,3.243
			c-2.123,0.114-4.316,0.093-4.412-2.7c-0.068-2.001,1.359-3.378,3.359-3.384C223.324,397.261,225.161,398.058,226.01,400.105z"/>
		<path fill-rule="evenodd" clip-rule="evenodd" fill="#CD2425" d="M353.246,423.548c-2.325,6.283-6.89,3.711-11.038,2.793
			c-0.001,0-0.045,0.058-0.045,0.058c3.735-0.909,7.471-1.818,11.209-2.729C353.373,423.672,353.246,423.548,353.246,423.548z"/>
		<path fill-rule="evenodd" clip-rule="evenodd" fill="#FDFDFD" d="M600.381,355.725c-3.89,7.696-7.401,14.772-11.054,21.776
			c-0.756,1.449-0.99,3.454-3.66,3.359c-2.38-0.083-2.471-1.938-3.017-3.133c-5.709-12.513-11.259-25.099-16.882-37.727
			c7.216-1.981,12.165-0.621,14.631,6.838c1.311,3.968,3.753,7.562,6.212,12.355c3.056-6.127,5.73-11.239,8.159-16.467
			c1.21-2.601,2.803-3.528,5.751-3.467c2.712,0.057,4.076,1.04,5.178,3.315c2.558,5.275,5.291,10.466,8.418,16.604
			c2.329-4.586,4.845-8.302,6.164-12.404c2.427-7.543,7.417-8.657,14.521-6.714c-5.596,12.63-11.123,25.225-16.768,37.768
			c-1.907,4.234-4.227,4.525-6.448,0.154C607.985,370.891,604.429,363.774,600.381,355.725z"/>
		<path fill-rule="evenodd" clip-rule="evenodd" fill="#FDFDFD" d="M756.362,354.86c0,8.293-0.333,15.056,0.109,21.768
			c0.33,4.999-2.66,4.235-5.584,4.15c-2.787-0.082-5.986,1.1-5.808-4.04c0.35-10.102-0.002-20.226,0.176-30.336
			c0.041-2.284-1.549-5.961,1.287-6.656c3.495-0.858,7.651-1.564,10.753,2.243c4.75,5.836,9.845,11.391,14.737,17.112
			c0.716,0.838,1.121,1.942,1.67,2.924c0.572-0.28,1.146-0.56,1.718-0.84c0-5.823,0.364-11.676-0.104-17.462
			c-0.453-5.595,3.225-4.062,6.144-4.367c3.488-0.366,5.342,0.188,5.188,4.554c-0.355,10.101,0.015,20.226-0.195,30.334
			c-0.044,2.145,1.785,5.559-1.619,6.354c-3.224,0.751-6.604,0.6-9.227-2.718C769.752,370.479,763.522,363.376,756.362,354.86z"/>
		<path fill-rule="evenodd" clip-rule="evenodd" fill="#FDFDFD" d="M499.643,380.792c-12.09-0.046-22.49-9.767-22.819-20.682
			c-0.308-10.246,9.064-21.784,24.972-20.853c13.028,0.765,21.362,8.376,21.273,21.152
			C522.991,371.467,512.219,380.841,499.643,380.792z M511.923,360.252c0.011-7.571-4.48-12.272-11.796-12.344
			c-6.971-0.069-11.878,4.897-11.907,12.052c-0.028,6.744,4.558,11.332,11.497,11.502
			C506.94,371.64,511.912,367.073,511.923,360.252z"/>
		<path fill-rule="evenodd" clip-rule="evenodd" fill="#FDFDFD" d="M877.426,351.527c-5.651-1.22-10.828-4.286-16.957-3.693
			c-8.014,0.775-13.55,7.191-12.247,14.808c0.97,5.667,8.977,9.838,15.744,8.287c1.089-0.25,2.307,0.044,2.629-1.502
			c0.381-1.831-0.522-2.271-2.17-2.506c-4.775-0.688-1.896-4.381-2.175-6.588c-0.363-2.863,2.434-2.148,4.018-2.046
			c3.808,0.245,9.454-1.92,11.02,1.06c2.317,4.411,1.093,10.271,0.44,15.488c-0.202,1.608-1.617,2.732-3.254,3.209
			c-7.124,2.078-13.99,3.349-21.769,1.762c-9.588-1.955-17.364-12.651-16.009-23.639c1.003-8.136,10.904-16.47,20.559-16.765
			c3.444-0.105,6.896-0.097,10.343-0.018C877.04,339.602,878.923,341.935,877.426,351.527z"/>
		<path fill-rule="evenodd" clip-rule="evenodd" fill="#FDFDFD" d="M414.24,339.402c5.054,0,10.112,0.131,15.16-0.047
			c3.196-0.113,5.033,0.249,4.997,4.309c-0.036,4.037-1.906,4.263-5.066,4.317c-10.106,0.18-10.104,0.286-10.106,10.616
			c0,5.283-0.211,10.577,0.06,15.848c0.218,4.236-0.136,6.687-5.642,6.552c-4.921-0.12-6.146-1.513-5.867-6.217
			c0.421-7.097-0.176-14.252,0.211-21.352c0.256-4.715-1.463-6.243-5.883-5.529c-1.12,0.181-2.313-0.115-3.438,0.052
			c-3.561,0.53-4.751-0.852-4.724-4.478c0.026-3.425,1.264-4.273,4.45-4.133C403.666,339.572,408.957,339.403,414.24,339.402z"/>
		<path fill-rule="evenodd" clip-rule="evenodd" fill="#FDFDFD" d="M682.663,359.744c0.007-4.575,0.488-9.214-0.111-13.709
			c-0.816-6.13,1.802-7.221,7.164-6.765c3.194,0.271,4.323,0.961,4.265,4.308c-0.194,10.977-0.336,21.968,0.037,32.937
			c0.19,5.587-3.379,3.966-6.266,4.296c-3.544,0.407-5.454-0.37-5.181-4.601C682.926,370.742,682.658,365.235,682.663,359.744z"/>
		<path fill-rule="evenodd" clip-rule="evenodd" fill="#FDFDFD" d="M396.713,174.114c-1.557,2.417-4.077,1.737-6.232,1.738
			c-66.993,0.032-133.985,0.011-200.977-0.035c-1.35-0.001-2.699-0.404-4.048-0.62c4.449-4.311,9.6-6.185,15.919-5.564
			c4.485,0.442,8.996-0.42,13.523-1.008c10.563-1.369,21.113,0.529,31.569,2.144c5.539,0.856,11.088,0.515,16.129-1.235
			c6.879-2.389,13.544-1.493,20.46-1.319c7.659,0.193,15.365-0.938,23.029-1.7c13.952-1.388,27.917-0.558,41.878-0.438
			c0.405,0.002,0.835,0.346,1.206,0.6c6.405,4.393,12.339,3.658,18.648-0.728c4.583-3.185,9.676-1.246,14.299,0.933
			C387.027,169.194,391.851,171.695,396.713,174.114z"/>
		<path fill-rule="evenodd" clip-rule="evenodd" fill="#FDFDFD" d="M295.925,48.601c5.107,5.204,11.818,5.371,18.415,5.859
			c2.215,8.881,4.33,17.796,6.71,26.64c1.201,4.462-1.875,6.447-4.656,8.157c-3.053,1.877-6.727,2.709-9.96,4.339
			c-2.952,1.488-3.381-1.112-3.647-2.412c-2.498-12.181-5.747-24.161-10.425-35.659C290.53,51.021,294.686,50.843,295.925,48.601z"
			/>
		<path fill-rule="evenodd" clip-rule="evenodd" fill="#FDFDFD" d="M268.141,96.13c6.021-4.846,13.584-6.517,19.452-11.279
			c1.896-1.539,3.265-0.513,3.935,1.714c1.503,4.998,2.733,10.02,2.097,15.303c-0.265,2.199-1.258,4.5-3.568,4.141
			c-3.699-0.578-0.069-2.625-0.362-3.94c-0.911-4.089-6.186-5.485-7.558-4.933C277.072,99.178,272.831,95.744,268.141,96.13z"/>
		<path fill-rule="evenodd" clip-rule="evenodd" fill="#FDFDFD" d="M348.995,157.763c20.397-2.579,40.188-3.439,60.131-1.244
			c-6.743,0.918-13.773-0.286-20.09,3.273c-1.072,0.604-3.343,0.835-3.977,0.185c-6.449-6.623-12.62-0.597-17.483,1.583
			C360.242,164.846,354.676,166.583,348.995,157.763z"/>
		<path fill-rule="evenodd" clip-rule="evenodd" fill="#FDFDFD" d="M152.234,161.899c6.372-0.088,8.929,8.146,15.904,7.165
			c2.165-0.305,10.531-3.52,11.518-5.435c0.698-1.354,1.005-2.049-0.747-2.985c-2.824-1.508-0.007-2.821,0.422-4.294
			c0.413-1.417,1.21-1.882,2.403-1.682c1.986,0.334,1.38,2.119,1.945,3.32c2.937,6.252,5.505,0.312,8.264-0.664
			c-0.002,0-0.129,0.125-0.129,0.125c3.663-1.287,3.026-5.952,6.063-7.783c0.595,6.493-2.465,10.25-8.399,11.971
			c-2.579,0.748-6.369,0.718-6.489,5.818c-0.058,2.461-4.913,2.22-7.602,2.976c-8.883,2.496-20.659-1.046-25.327-7.271
			C150.784,162.739,151.509,162.32,152.234,161.899z"/>
		<path fill-rule="evenodd" clip-rule="evenodd" fill="#FDFDFD" d="M412.728,79.184c9.691-4.022,21.173-3.487,30.543-9.75
			c1.07-0.716,1.84-2.237,3.393-0.875c1.435,1.259,0.406,2.628-0.174,3.64c-1.149,2.005-2.843,3.061-5.399,3.556
			c-9.428,1.834-18.792,4.026-28.103,6.391c-1.6,0.407-2.558,0.604-3.344-0.786c-0.412-0.726-0.908-1.85-0.627-2.446
			C410.016,76.806,411.188,78.607,412.728,79.184z"/>
		<path fill-rule="evenodd" clip-rule="evenodd" fill="#FDFDFD" d="M448.511,146.592c8.838-9.97,1.045-21.492,3.697-33.429
			c4.518,7.102,6.745,13.48,8.303,20.139c0.095,0.403-0.102,1.26-0.18,1.262C452.582,134.777,454.816,144.289,448.511,146.592z"/>
		<path fill-rule="evenodd" clip-rule="evenodd" fill="#FDFDFD" d="M347.006,153.178c-17.685,2.855-35.435,5.651-53.535,4.905
			C311.381,157.21,328.986,153.495,347.006,153.178z"/>
		<path fill-rule="evenodd" clip-rule="evenodd" fill="#FDFDFD" d="M240.944,159.546c9.405,0,18.812,0.069,28.215-0.091
			c1.137-0.019,1.548,0.648,2.234,1.028c0.205,0.115,0.114,1.415-0.242,1.771c-1.097,1.095-1.818-0.603-2.393-0.613
			c-9.289-0.193-18.582-0.136-27.875-0.136C240.904,160.851,240.924,160.199,240.944,159.546z"/>
		<path fill-rule="evenodd" clip-rule="evenodd" fill="#CD2425" d="M381.453,143.456c-0.74-5.073-1.525-10.153,1.699-15.396
			c2.079,2.502,3.788,4.559,5.901,7.103c-3.575,1.37-6.531,3.326-6.017,7.667C382.511,143.04,381.981,143.249,381.453,143.456z"/>
		<path fill-rule="evenodd" clip-rule="evenodd" fill="#FDFDFD" d="M409.109,148.749c-2.313,1.512-5.082,2.025-7.248-0.796
			c-1.664-2.166-4.931-4.847-1.632-7.484c3.356-2.684,3.39,1.928,4.813,3.346C406.475,145.24,407.639,146.937,409.109,148.749z"/>
		<path fill-rule="evenodd" clip-rule="evenodd" fill="#FDFDFD" d="M381.453,143.456c0.529-0.208,1.058-0.416,1.583-0.626
			c2.797,1.188,3.201-1.802,4.754-2.772c1.769-1.102,3.479-0.349,5.528-0.167c-2.805,1.682-1,7.642-3.792,6.53
			C386.939,145.39,380.289,153.249,381.453,143.456z"/>
		<path fill-rule="evenodd" clip-rule="evenodd" fill="#FDFDFD" d="M191.866,137.914c4.268,5.021,2.107,10.058,0.259,15.23
			c-0.435,1.22-3.278,2.708-0.315,4.307c0.003-0.001,0.13-0.126,0.132-0.126c-2.877-1.268-3.896-3.228-2.29-6.164l-0.019-0.005
			c0.477-0.349,1.244-0.608,1.386-1.062c1.17-3.74-1.412-7.477-0.083-11.246C191.26,138.55,191.569,138.239,191.866,137.914z"/>
		<path fill-rule="evenodd" clip-rule="evenodd" fill="#FDFDFD" d="M334.46,161.079c-5.633,0-11.267,0-16.9,0
			C323.184,159.747,328.817,159.602,334.46,161.079z"/>
		<path fill-rule="evenodd" clip-rule="evenodd" fill="#CD2425" d="M410.301,160.903c6.276-0.505,12.655-1.365,20.67,1.649
			C422.793,162.395,416.444,164.092,410.301,160.903z"/>
		<path fill-rule="evenodd" clip-rule="evenodd" fill="#FDFDFD" d="M227.801,107.855c6.137,0.212,9.979-9.421,14.447,0.537
			C237.959,104.062,234.026,110.864,227.801,107.855z"/>
		<path fill-rule="evenodd" clip-rule="evenodd" fill="#FDFDFD" d="M220.647,124.962c1.649,5.192,0.442,9.738-3.562,14.39
			C216.773,133.725,218.085,129.203,220.647,124.962z"/>
		<path fill-rule="evenodd" clip-rule="evenodd" fill="#FDFDFD" d="M184.319,131.585c-6.725,0.88-12.191-4.423-18.907-3.588
			c9.648-1.97,15.01-0.845,18.778,3.681L184.319,131.585z"/>
		<path fill-rule="evenodd" clip-rule="evenodd" fill="#FDFDFD" d="M427.068,147.5c-3.888-0.31-6.41-0.315-8.816-0.845
			c-0.568-0.125-3.098,0.125-2.104-2.349c0.738-1.837,1.788-2.833,3.533-1.894C421.819,143.564,423.72,145.157,427.068,147.5z"/>
		<path fill-rule="evenodd" clip-rule="evenodd" fill="#FDFDFD" d="M203.51,133.095c-2.015-3.507-0.993-7.244-4.144-9.02
			c-1.195-0.674-0.563-1.715,0.24-1.971c1.203-0.384,2.758-0.709,3.356,1.032C203.96,126.036,205.245,128.936,203.51,133.095z"/>
		<path fill-rule="evenodd" clip-rule="evenodd" fill="#FDFDFD" d="M189.653,151.161c-3.507,1.512-5.689-0.977-8.58-2.357
			c4.735-4.219,6.343-0.015,8.561,2.352C189.635,151.156,189.653,151.161,189.653,151.161z"/>
		<path fill-rule="evenodd" clip-rule="evenodd" fill="#CD2425" d="M147.473,154.643c-3.464-4.033-2.713-8.453-1.199-12.954
			c1.865,3.997,2.274,8.168,1.609,12.478C147.884,154.169,147.473,154.643,147.473,154.643z"/>
		<path fill-rule="evenodd" clip-rule="evenodd" fill="#FDFDFD" d="M184.191,131.678c4.752-0.621,6.902,1.961,7.675,6.236
			c-0.297,0.325-0.606,0.636-0.929,0.934c-2.485-1.971-2.508-1.989-3.823-0.062c-0.237,0.346-0.6,1.365-0.623,0.896
			c-0.075-1.532-2.958-2.669-1.229-3.922c3.438-2.493,0.708-3.107-0.917-4.195C184.319,131.585,184.191,131.678,184.191,131.678z"/>
		<path fill-rule="evenodd" clip-rule="evenodd" fill="#FDFDFD" d="M253.211,142.346c-1.292,2.761-3.061,2.385-4.59,2.341
			c-2.52-0.073-6.789,0.523-6.525-2.355c0.302-3.304,3.546,0.543,5.657-0.11C249.38,141.717,251.333,142.264,253.211,142.346z"/>
		<path fill-rule="evenodd" clip-rule="evenodd" fill="#FDFDFD" d="M159.488,149.082c-1.756,3.986-2.546,6.791-5.948,6.336
			c-0.963-0.128-2.632-2.465-2.386-2.914C152.658,149.773,155.898,151.153,159.488,149.082z"/>
		<path fill-rule="evenodd" clip-rule="evenodd" fill="#FDFDFD" d="M246.075,119.628c1.429-5.678,2.423-9.528,8.27-5.242
			C251.931,115.916,249.714,117.322,246.075,119.628z"/>
		<path fill-rule="evenodd" clip-rule="evenodd" fill="#FDFDFD" d="M206.752,109.636c-2.209,3.724-4.812,5.838-9.184,4.488
			C199.384,110.534,201.891,108.33,206.752,109.636z"/>
		<path fill-rule="evenodd" clip-rule="evenodd" fill="#FDFDFD" d="M245.263,100.817c1.518-0.756,4.213-2.189,7.609-1.153
			C251.433,107.717,246.543,98.956,245.263,100.817z"/>
		<path fill-rule="evenodd" clip-rule="evenodd" fill="#FDFDFD" d="M151.713,145.984c-2.234,0.021-2.585-1.272-2.418-2.719
			c0.157-1.359-0.726-3.564,1.759-3.436c0.506,0.026,3.426,0.103,2.361,2.558C152.866,143.651,153.843,145.806,151.713,145.984z"/>
		<path fill-rule="evenodd" clip-rule="evenodd" fill="#CD2425" d="M152.234,161.899c-0.726,0.42-1.451,0.839-2.175,1.261
			c0,0.001,0.226-0.158,0.227-0.156c0.804-2.854-2.802-3.191-3.094-5.418c0.095-0.981,0.188-1.962,0.282-2.943
			c0,0,0.41-0.474,0.41-0.476C151.289,155.644,150.336,159.573,152.234,161.899z"/>
		<path fill-rule="evenodd" clip-rule="evenodd" fill="#FDFDFD" d="M147.192,157.586c0.292,2.228,3.898,2.564,3.094,5.418
			c-3.093,0.663-3.673-2.472-5.518-3.694c-0.918-0.607-2.022-1.746-1.04-2.734C145.082,155.214,145.983,157.333,147.192,157.586z"/>
		<path fill-rule="evenodd" clip-rule="evenodd" fill="#FDFDFD" d="M263.49,142.065c3.2-2.28,6.498-1.196,10.255-0.761
			c-2.758,5.782-6.812-1.925-9.336,1.675C264.117,142.661,263.811,142.355,263.49,142.065z"/>
		<path fill-rule="evenodd" clip-rule="evenodd" fill="#FDFDFD" d="M367.868,86.521c2.417-4.709,5.618-3.811,7.959-4.813
			C374.415,84.758,371.838,85.241,367.868,86.521z"/>
		<path fill-rule="evenodd" clip-rule="evenodd" fill="#FDFDFD" d="M264.409,142.979c-2.425,2.843-4.967,1.747-8.419,0.783
			c2.833-2.482,5.316-1.222,7.5-1.697C263.811,142.355,264.117,142.661,264.409,142.979z"/>
		<path fill-rule="evenodd" clip-rule="evenodd" fill="#CD2425" d="M382.625,100.806c-0.333,1.594-1.331,2.288-2.828,2.215
			c-0.658-0.033-1.322-0.353-1.087-1.213c0.373-1.368,1.422-2.223,2.682-2.578C382.816,98.83,382.412,100.153,382.625,100.806z"/>
		<path fill-rule="evenodd" clip-rule="evenodd" fill="#CD2425" d="M392.166,100.609c0.232-0.636,0.568-0.694,0.996-0.165
			c0.277,0.342,0.542,0.694,0.812,1.042c-0.426,0.074-0.922,0.314-1.255,0.171C392.436,101.539,392.342,100.977,392.166,100.609z"/>
		<path fill-rule="evenodd" clip-rule="evenodd" fill="#FDFDFD" d="M202.246,104.184c0.411,0.58,0.634,1.195-0.134,1.604
			c-0.146,0.077-0.599-0.423-0.91-0.657C201.55,104.814,201.897,104.499,202.246,104.184z"/>
		<path fill-rule="evenodd" clip-rule="evenodd" fill="#FDFDFD" d="M542.159,284.229c0-2.518,0.002-5.033,0-7.55
			c-0.004-9.391,0.037-9.794,9.577-8.836c5.841,0.588,12,0.564,16.83,5.551c7.592,7.838,6.556,17.718-2.946,23.322
			c-6.329,3.732-13.236,3.904-20.284,3.821c-3.065-0.036-3.214-1.712-3.189-3.955C542.192,292.464,542.159,288.346,542.159,284.229z
			"/>
		<path fill-rule="evenodd" clip-rule="evenodd" fill="#FDFDFD" d="M552.419,215.105c2.931,0.342,6.225-0.292,9.66,1.068
			c4.726,1.872,7.503,4.642,7.613,9.73c0.115,5.327-1.493,9.947-6.657,12.314c-3.021,1.386-6.265,2.585-9.529,3.088
			c-10.781,1.66-11.368,1.026-11.349-9.91c0.002-2.058-0.004-4.116-0.005-6.174C542.146,215.134,542.146,215.134,552.419,215.105z"
			/>
		<path fill-rule="evenodd" clip-rule="evenodd" fill="#FDFDFD" d="M795.342,258.054c0.002-11.709,0.343-23.432-0.144-35.121
			c-0.237-5.701,1.773-6.769,6.958-6.701c10.057,0.132,19.824-0.049,28.867,5.889c9.762,6.408,12.927,16.274,14.364,26.502
			c1.21,8.614-0.276,17.238-2.912,26.047c-5.77,19.281-28.467,25.403-43.942,24.6c-4.3-0.222-3.126-3.19-3.146-5.399
			C795.287,281.931,795.341,269.992,795.342,258.054z"/>
		<path fill-rule="evenodd" clip-rule="evenodd" fill="#FDFDFD" d="M712.401,256.909c1.241,11.725-2.793,22.012-8.508,31.73
			c-8.214,13.971-31.706,13.987-40.262,0.355c-10.019-15.962-12.36-32.947-7.116-50.878c3.944-13.498,16.418-23.801,27.003-23.007
			c13.425,1.005,25.38,12.417,27.832,26.891C712.187,246.937,713.156,251.922,712.401,256.909z"/>
		<path fill-rule="evenodd" clip-rule="evenodd" fill="#FDFDFD" d="M149.256,362.298c0-6.945,0.372-12.607-0.108-18.195
			c-0.444-5.165,2.524-4.676,5.904-4.803c3.741-0.14,5.887,0.232,5.691,5.022c-0.412,10.09-0.037,20.211-0.225,30.312
			c-0.039,2.104,1.793,5.661-2.083,6.015c-3.388,0.309-7.146,1.257-9.89-2.717c-3.964-5.743-8.478-11.114-12.88-16.543
			c-0.943-1.163-1.918-2.614-4.357-2.724c-1.313,5.935-0.715,12.023-0.477,17.994c0.202,5.069-2.929,4.154-5.797,4.119
			c-2.802-0.034-6.043,1.05-5.894-4.032c0.299-10.099-0.014-20.213,0.162-30.316c0.04-2.295-1.477-5.963,1.422-6.67
			c3.47-0.848,7.521-1.596,10.662,2.22C136.817,348.577,142.656,354.841,149.256,362.298z"/>
		<path fill-rule="evenodd" clip-rule="evenodd" fill="#FDFDFD" d="M182.095,359.876c-0.004-5.283,0.157-10.573-0.062-15.848
			c-0.139-3.363,0.553-4.96,4.442-4.698c9.407,0.633,18.96-1.403,27.895,4.12c8.916,5.512,10.248,23.103,2.424,30.136
			c-9.614,8.641-20.995,6.815-32.147,7.228c-2.954,0.109-2.543-1.907-2.545-3.708C182.094,371.362,182.099,365.619,182.095,359.876z
			 M199.691,348.055c-4.993-1.116-7.107,0.554-6.565,5.936c0.478,4.738,0.085,9.563,0.1,14.35c0.005,1.547-0.364,3.306,1.966,3.65
			c5.073,0.75,9.569-0.799,12.978-4.352c4.341-4.523,2.876-10.215,1.045-15.116C207.812,348.771,204.122,346.832,199.691,348.055z"
			/>
		<path fill-rule="evenodd" clip-rule="evenodd" fill="#FDFDFD" d="M56.061,381.505c5.044-13.591,9.614-25.752,14.051-37.962
			c1.174-3.229,3.045-4.688,6.576-4.224c3.355,0.44,6.758-0.861,8.97,3.741c5.875,12.23,10.701,24.941,18.132,37.376
			c-7.06,0.313-12.641,2.2-16.342-6.111c-2.378-5.342-9.576-1.493-14.548-2.226c-3.464-0.511-3.286,2.488-4.076,4.969
			C66.636,383.933,60.945,379.324,56.061,381.505z M83.923,364.258c-2.021-4.497-3.704-8.239-5.716-12.716
			c-1.837,4.813-3.297,8.639-4.853,12.716C77.075,364.258,80.236,364.258,83.923,364.258z"/>
		<path fill-rule="evenodd" clip-rule="evenodd" fill="#FDFDFD" d="M70.713,264.654c4.195-13.031,7.389-25.955,10.3-39.213
			c4.648,12.708,6.518,26.177,11.575,39.213C85.221,264.654,78.265,264.654,70.713,264.654z"/>
		<path fill-rule="evenodd" clip-rule="evenodd" fill="#FDFDFD" d="M434.271,269.131c0.934,8.691-2.438,17.092-8.064,24.472
			c-10.29,13.499-39.413,12.881-46.978-9.22c-4.98-14.551-3.549-28.088,5.467-40.745c4.253-5.971,16.866-11.13,23.926-9.484
			C426.643,238.353,434.247,248.45,434.271,269.131z"/>
		<path fill-rule="evenodd" clip-rule="evenodd" fill="#FDFDFD" d="M144.468,51.051c-0.126,4.317-8.118,9.896-14.115,9.852
			c-2.975-0.021-8.322-7.492-8.456-11.813c-0.085-2.751,9.383-7.764,14.885-7.388C142.33,42.079,144.447,45.839,144.468,51.051z"/>
		<path fill-rule="evenodd" clip-rule="evenodd" fill="#FDFDFD" d="M222.185,24.815c-0.274-0.276-0.548-0.551-0.823-0.826
			c0.218-0.035,0.482-0.164,0.647-0.086c0.591,0.281,0.583,0.652,0.018,1.015C222.025,24.918,222.185,24.815,222.185,24.815z"/>
		<path fill-rule="evenodd" clip-rule="evenodd" fill="#FDFDFD" d="M587.512,154.511c-4.7-0.167-19.323-10.255-19.771-14.334
			c-0.302-2.746,0.75-6.247,3.507-7.551c8.052-3.812,12.904-11.305,19.702-16.564c3.905-3.021,6.061-3.194,8.876,0.483
			c4.811,6.286,12.09,11.571,8.582,21.204C606.11,144.05,592.798,154.698,587.512,154.511z"/>
		<path fill-rule="evenodd" clip-rule="evenodd" fill="#FDFDFD" d="M77.644,71.76c6.725-0.377,8.501,3.624,9.01,8.539
			c0.389,3.76-9.492,13.949-13.709,14.468c-1.561,0.191-9.799-11.05-9.9-13.507C62.919,78.17,73.033,71.863,77.644,71.76z"/>
		<path fill-rule="evenodd" clip-rule="evenodd" fill="#FDFDFD" d="M182.143,423.605c-1.632-0.323-3.757,0.29-3.882-2.551
			c-0.147-3.328,0.277-6.632,3.175-8.43c1.97-1.223,4.094-2.858,7.367-2.649c-0.8,5.431-3.591,9.682-6.793,13.75
			C182.008,423.726,182.143,423.605,182.143,423.605z"/>
		<path fill-rule="evenodd" clip-rule="evenodd" fill="#FDFDFD" d="M773.992,410.366c-1.772,3.759-4.543,5.01-8.141,5.935
			C766.477,411.404,768.305,408.743,773.992,410.366z"/>
		<path fill-rule="evenodd" clip-rule="evenodd" fill="#FDFDFD" d="M307.162,402.234c-0.663,2.91-2.827,4.033-5.139,4.957
			c-1.418,0.567-2.054-0.094-2.081-1.515c-0.053-2.733,0.983-5.004,3.721-5.592C304.958,399.808,306.475,400.903,307.162,402.234z"
			/>
		<path fill-rule="evenodd" clip-rule="evenodd" fill="#FDFDFD" d="M638.645,422.694c-1.607,0.085-2.136-0.88-2.433-2.334
			c-0.737-3.605,3.795-10.714,7.294-11.246c1.188-0.18,2.344,0.189,2.879,1.255C647.267,412.124,640.604,422.611,638.645,422.694z"
			/>
		<path fill-rule="evenodd" clip-rule="evenodd" fill="#FDFDFD" d="M465.701,417.121c2.059-3.459,2.276-7.465,6.758-7.264
			c0.955,0.043,2.013,0.617,1.697,1.658C472.968,415.433,469.333,415.527,465.701,417.121z"/>
		<path fill-rule="evenodd" clip-rule="evenodd" fill="#080808" d="M511.923,360.252c-0.011,6.821-4.982,11.388-12.206,11.21
			c-6.939-0.17-11.525-4.758-11.497-11.502c0.029-7.154,4.937-12.121,11.907-12.052
			C507.442,347.979,511.934,352.681,511.923,360.252z"/>
		<path fill-rule="evenodd" clip-rule="evenodd" fill="#080808" d="M199.691,348.055c4.431-1.223,8.121,0.717,9.523,4.468
			c1.831,4.901,3.296,10.593-1.045,15.116c-3.409,3.553-7.905,5.102-12.978,4.352c-2.33-0.345-1.961-2.104-1.966-3.65
			c-0.014-4.786,0.378-9.611-0.1-14.35C192.583,348.608,194.698,346.938,199.691,348.055z"/>
		<path fill-rule="evenodd" clip-rule="evenodd" fill="#080808" d="M83.923,364.258c-3.687,0-6.849,0-10.569,0
			c1.556-4.077,3.016-7.902,4.853-12.716C80.219,356.019,81.902,359.761,83.923,364.258z"/>
	</g>
</g>
</svg>
